<?xml version="1.0" standalone="no"?>
<!DOCTYPE svg PUBLIC "-//W3C//DTD SVG 1.0//EN" "http://www.w3.org/TR/2001/REC-SVG-20010904/DTD/svg10.dtd">
<svg xmlns="http://www.w3.org/2000/svg" xmlns:xlink="http://www.w3.org/1999/xlink" id="body_1" width="667" height="667">

<defs>
    <clipPath  id="1">

    <path id=""  clip-rule="evenodd" transform="matrix(1 0 0 1 0 0)"  d="M500 0L500 500L500 500L0 500L0 500L0 0L0 0L500 0z" />    </clipPath>
</defs>

<g transform="matrix(1.3333 0 0 1.3333 0 0)">
	<g clip-path="url(#1)" >
    <path id=""  transform="matrix(1 0 0 -1 0 500)"  d="M93.75 117.1875L93.75 117.1875L93.75 117.1875L93.75 117.1875L93.75 117.1875L93.75 351.5625L93.75 351.5625L93.75 351.5625C 93.75 364.50195 104.24805 375 117.1875 375L117.1875 375L117.1875 375C 130.12695 375 140.625 364.50195 140.625 351.5625L140.625 351.5625L140.625 351.5625L140.625 351.5625L140.625 173.73045L140.625 173.73045L366.21094 399.3164L366.21094 399.3164L366.21094 399.3164C 370.8203 404.00394 376.8164 406.25 382.8125 406.25L382.8125 406.25L382.8125 406.25C 388.8086 406.25 394.8047 403.96097 399.38477 399.3838L399.38477 399.3838L399.38477 399.3838C 408.54004 390.22852 408.54004 375.3994 399.38477 366.2393L399.38477 366.2393L173.73044 140.625L173.73044 140.625L173.73044 140.625L173.73044 140.625L351.5625 140.625L351.5625 140.625L351.5625 140.625C 364.50195 140.625 375 130.1758 375 117.1875L375 117.1875L375 117.1875C 375 104.19921 364.50195 93.75 351.5625 93.75L351.5625 93.75L351.5625 93.75L351.5625 93.75L117.1875 93.75L117.1875 93.75L117.1875 93.75C 104.19922 93.75 93.75 104.29688 93.75 117.1875z" stroke="#FFFFFF" stroke-width="1.3020834" fill="#000000" fill-rule="nonzero" />
	</g>
</g>
</svg>