<?xml version="1.0" encoding="UTF-8"?>
<!DOCTYPE svg PUBLIC "-//W3C//DTD SVG 1.1//EN" "http://www.w3.org/Graphics/SVG/1.1/DTD/svg11.dtd">
<svg xmlns="http://www.w3.org/2000/svg" version="1.1" width="412px" height="335px" style="shape-rendering:geometricPrecision; text-rendering:geometricPrecision; image-rendering:optimizeQuality; fill-rule:evenodd; clip-rule:evenodd" xmlns:xlink="http://www.w3.org/1999/xlink">
<g><path style="opacity:0.992" fill="#611366" d="M 411.5,88.5 C 411.5,170.5 411.5,252.5 411.5,334.5C 409.167,334.5 406.833,334.5 404.5,334.5C 386.231,287.365 367.565,240.365 348.5,193.5C 347.833,193.167 347.167,192.833 346.5,192.5C 309.726,206.72 273.06,221.22 236.5,236C 235.09,236.368 234.09,237.201 233.5,238.5C 238.098,249.794 242.598,261.127 247,272.5C 247.837,274.844 249.171,276.844 251,278.5C 270.494,270.668 289.994,262.835 309.5,255C 311.5,254.333 313.5,254.333 315.5,255C 324.858,278.07 334.025,301.237 343,324.5C 343.604,328.415 342.437,331.749 339.5,334.5C 283.833,334.5 228.167,334.5 172.5,334.5C 145.85,301.266 133.684,263.266 136,220.5C 142.887,177.298 166.054,146.465 205.5,128C 236.793,113.895 269.46,108.895 303.5,113C 303.957,112.586 304.291,112.086 304.5,111.5C 298.362,95.7533 292.029,80.0866 285.5,64.5C 266.183,63.5203 247.183,65.687 228.5,71C 194.206,79.4801 163.54,94.8134 136.5,117C 80.2482,172.913 66.4149,238.08 95,312.5C 98.4603,319.749 101.627,327.082 104.5,334.5C 70.5,334.5 36.5,334.5 2.5,334.5C 1.49393,329.072 0.493929,323.738 -0.5,318.5C -0.5,314.167 -0.5,309.833 -0.5,305.5C 6.53149,256.293 13.6982,206.959 21,157.5C 23.3424,114.926 43.5091,84.4263 81.5,66C 131.924,46.1928 182.257,26.1928 232.5,6C 262.739,-3.95897 291.406,-0.625641 318.5,16C 349.394,40.4054 380.394,64.572 411.5,88.5 Z"/></g>
</svg>
