<?xml version="1.0" standalone="no"?>
<!DOCTYPE svg PUBLIC "-//W3C//DTD SVG 1.0//EN" "http://www.w3.org/TR/2001/REC-SVG-20010904/DTD/svg10.dtd">
<svg xmlns="http://www.w3.org/2000/svg" xmlns:xlink="http://www.w3.org/1999/xlink" id="body_1" width="667" height="667">

<defs>
    <clipPath  id="1">

    <path id=""  clip-rule="evenodd" transform="matrix(1 0 0 1 0 0)"  d="M500.25 500L0 500L0 500L0 -0.25L0 -0.25L500.25 -0.25L500.25 -0.25L500.25 500z" />    </clipPath>
    <clipPath  id="2">

    <path id=""  clip-rule="evenodd" transform="matrix(1 0 0 1 0 0)"  d="M-9.184621E-14 0.012512207L-9.184621E-14 0.012512207L-9.184621E-14 0.012512207L499.9875 0.012512207L499.9875 0.012512207L499.9875 0.012512207L499.9875 0.012512207L499.9875 500L499.9875 500L499.9875 500L499.9875 500L0 500L0 500L0 500L0 500L-9.184621E-14 0.012512207z" />    </clipPath>
</defs>

<g transform="matrix(1.3333 0 0 1.3333 0 0)">
	<g clip-path="url(#1)" >
		<g clip-path="url(#2)" >
    <path id=""  transform="matrix(1 0 0 -1 0 500)"  d="M295.59802 46.287872L295.59802 46.287872L295.59802 46.287872L295.59802 46.287872L295.59802 46.287872L295.59802 46.287872L295.59802 46.287872L116.793884 232.90431L116.793884 232.90431L116.793884 232.90431L116.793884 232.90431L116.793884 232.90431L116.793884 232.90431L116.793884 232.90431C 111.52066 239.15411 109.37222 245.01337 109.37222 249.99373L109.37222 249.99373L109.37222 249.99373L109.37222 249.99373L109.37222 249.99373L109.37222 249.99373L109.37222 249.99373C 109.37222 254.97409 111.53912 261.6829 115.90326 266.1945L115.90326 266.1945L115.90326 266.1945L115.90326 266.1945L295.59802 453.6898L295.59802 453.6898L295.59802 453.6898C 304.48453 463.06064 320.2068 463.36533 328.7027 454.39288L328.7027 454.39288L328.7027 454.39288L328.7027 454.39288L328.7027 454.39288L328.7027 454.39288L328.7027 454.39288C 338.10187 445.482 338.40753 430.5849 329.40454 421.2785L329.40454 421.2785L329.40454 421.2785L329.40454 421.2785L165.23026 249.99373L165.23026 249.99373L165.23026 249.99373L165.23026 249.99373L329.28864 78.70896L329.28864 78.70896L329.28864 78.70896L329.28864 78.70896L329.28864 78.70896L329.28864 78.70896L329.28864 78.70896C 338.29132 69.431854 337.98566 54.51035 328.5868 45.59456L328.5868 45.59456L328.5868 45.59456L328.5868 45.59456L328.5868 45.59456L328.5868 45.59456L328.5868 45.59456C 320.2068 36.620174 304.48453 36.913105 295.59802 46.287872z" stroke="#FFFFFF" stroke-width="1.3020507" fill="#000000" fill-rule="nonzero" />
		</g>
	</g>
</g>
</svg>