<?xml version="1.0" standalone="no"?>
<!DOCTYPE svg PUBLIC "-//W3C//DTD SVG 1.0//EN" "http://www.w3.org/TR/2001/REC-SVG-20010904/DTD/svg10.dtd">
<svg xmlns="http://www.w3.org/2000/svg" xmlns:xlink="http://www.w3.org/1999/xlink" id="body_1" width="667" height="667">

<defs>
    <clipPath  id="1">

    <path id=""  clip-rule="evenodd" transform="matrix(1 0 0 1 0 0)"  d="M500 0L500 500L500 500L0 500L0 500L0 0L0 0L500 0z" />    </clipPath>
</defs>

<g transform="matrix(1.3333 0 0 1.3333 0 0)">
	<g clip-path="url(#1)" >
    <path id=""  transform="matrix(1 0 0 -1 0 500)"  d="M469.9121 48.642582C 461.15332 45.07227 451.08398 47.025394 444.36523 53.73926L444.36523 53.73926L404.22852 93.87598C 364.1211 54.442383 309.39453 30.47754 250.81053 30.47754L250.81053 30.47754L250.81053 30.47754C 129.29684 31.357424 31.25 129.39453 31.25 250L31.25 250L31.25 250C 31.25 370.60547 129.29684 468.65234 249.90231 468.65234L249.90231 468.65234L249.90231 468.65234C 300.9863 468.65234 350.78125 450.75195 390.03903 418.09567L390.03903 418.09567L390.03903 418.09567C 399.99023 409.7949 401.3281 395.02927 393.0293 385.0781L393.0293 385.0781L393.0293 385.0781C 384.69824 375.0976 369.96286 373.789 360.0117 382.08783L360.0117 382.08783L360.0117 382.08783C 329.19922 407.71484 290.13672 421.875 250 421.875L250 421.875L250 421.875C 155.24414 421.875 78.125 344.75586 78.125 250L78.125 250L78.125 250C 78.125 155.24416 155.27344 78.125 250 78.125L250 78.125L250 78.125C 295.97656 78.125 338.79883 96.96289 370.3125 127.822266L370.3125 127.822266L319.39453 178.74023C 312.68066 185.4541 310.69727 195.52734 314.29785 204.2871L314.29785 204.2871L314.29785 204.2871C 317.8711 213.08594 326.46484 218.75 335.9375 218.75L335.9375 218.75L335.9375 218.75L335.9375 218.75L460.9375 218.75L460.9375 218.75L460.9375 218.75C 473.87695 218.75 484.375 208.3008 484.375 195.3125L484.375 195.3125L484.375 195.3125L484.375 195.3125L484.375 70.3125L484.375 70.3125L484.375 70.3125C 484.375 60.820312 478.67188 52.27539 469.9121 48.642582z" stroke="#FFFFFF" stroke-width="1.3020834" fill="#000000" fill-rule="nonzero" />
	</g>
</g>
</svg>