<?xml version="1.0" standalone="no"?>
<!DOCTYPE svg PUBLIC "-//W3C//DTD SVG 1.0//EN" "http://www.w3.org/TR/2001/REC-SVG-20010904/DTD/svg10.dtd">
<svg xmlns="http://www.w3.org/2000/svg" xmlns:xlink="http://www.w3.org/1999/xlink" id="body_1" width="667" height="667">

<defs>
    <clipPath  id="1">

    <path id=""  clip-rule="evenodd" transform="matrix(1 0 0 1 0 0)"  d="M500 500L0 500L0 500L0 0L0 0L500 0L500 0L500 500z" />    </clipPath>
</defs>

<g transform="matrix(1.3333 0 0 1.3333 0 0)">
	<g clip-path="url(#1)" >
    <path id=""  transform="matrix(1 0 0 -1 0 500)"  d="M70.3125 484.375L70.3125 484.375L70.3125 484.375L70.3125 484.375L70.3125 484.375L195.3125 484.375L195.3125 484.375L195.3125 484.375C 208.3008 484.375 218.75 473.92575 218.75 460.9375L218.75 460.9375L218.75 460.9375L218.75 460.9375L218.75 335.9375L218.75 335.9375L218.75 335.9375C 218.75 323.05664 208.33986 312.5 195.33203 312.5L195.33203 312.5L195.33203 312.5C 189.23145 312.5 183.23244 314.87503 178.74023 319.36816L178.74023 319.36816L127.83203 370.31253C 96.96289 338.76953 78.125 295.99612 78.125 250L78.125 250L78.125 250C 78.125 154.39455 154.39455 78.125 250 78.125L250 78.125L250 78.125C 345.60547 78.125 421.875 155.24414 421.875 250L421.875 250L421.875 250C 421.875 329.30664 376.6211 354.58987 376.6211 374.12112L376.6211 374.12112L376.6211 374.12112C 376.6211 384.06253 384.43655 397.5782 400.0684 397.5782L400.0684 397.5782L400.0684 397.5782C 424.58984 397.5782 468.69144 324.23834 468.69144 249.043L468.69144 249.043L468.69144 249.043C 468.69144 128.43753 370.6446 30.390661 250.03911 30.390661L250.03911 30.390661L250.03911 30.390661C 129.43364 30.390661 32.16799 128.43755 32.16799 249.043L32.16799 249.043L32.16799 249.043C 32.16799 307.66605 56.171894 362.32425 95.59572 402.461L95.59572 402.461L55.459003 442.59772C 50.965843 447.09088 48.60451 453.086 48.60451 459.1895L48.60451 459.1895L48.60451 459.1895C 46.884766 474.02344 57.451176 484.375 70.3125 484.375z" stroke="#FFFFFF" stroke-width="1.3020834" fill="#000000" fill-rule="nonzero" />
	</g>
</g>
</svg>