<?xml version="1.0" standalone="no"?>
<!DOCTYPE svg PUBLIC "-//W3C//DTD SVG 1.0//EN" "http://www.w3.org/TR/2001/REC-SVG-20010904/DTD/svg10.dtd">
<svg xmlns="http://www.w3.org/2000/svg" xmlns:xlink="http://www.w3.org/1999/xlink" id="body_1" width="667" height="667">

<defs>
    <clipPath  id="1">

    <path id=""  clip-rule="evenodd" transform="matrix(1 0 0 1 0 0)"  d="M500 0L500 500L500 500L0 500L0 500L0 0L0 0L500 0z" />    </clipPath>
</defs>

<g transform="matrix(1.3333 0 0 1.3333 0 0)">
	<g clip-path="url(#1)" >
    <path id=""  transform="matrix(1 0 0 -1 0 500)"  d="M46.289032 204.39455L46.289032 204.39455L46.289032 204.39455L232.91016 383.20316L232.91016 383.20316L232.91016 383.20316C 239.16013 388.47653 245.01952 390.625 250 390.625L250 390.625L250 390.625C 254.98048 390.625 261.68945 388.45804 266.20117 384.09378L266.20117 384.09378L453.70117 204.39455C 463.07227 195.50781 463.37695 179.78517 454.4043 171.28905L454.4043 171.28905L454.4043 171.28905C 445.49316 161.88963 430.5957 161.58397 421.28906 170.58719L421.28906 170.58719L250 334.7656L250 334.7656L78.71094 170.7031L78.71094 170.7031L78.71094 170.7031C 69.43359 161.70016 54.51172 162.00584 45.595703 171.40497L45.595703 171.40497L45.595703 171.40497C 36.621094 179.78517 36.914032 195.50781 46.289032 204.39455z" stroke="#FFFFFF" stroke-width="1.3020834" fill="#000000" fill-rule="nonzero" />
	</g>
</g>
</svg>