<?xml version="1.0" encoding="UTF-8"?>
<!DOCTYPE svg PUBLIC "-//W3C//DTD SVG 1.1//EN" "http://www.w3.org/Graphics/SVG/1.1/DTD/svg11.dtd">
<svg xmlns="http://www.w3.org/2000/svg" version="1.1" width="512px" height="512px" style="shape-rendering:geometricPrecision; text-rendering:geometricPrecision; image-rendering:optimizeQuality; fill-rule:evenodd; clip-rule:evenodd" xmlns:xlink="http://www.w3.org/1999/xlink">
<g><path style="opacity:0.992" fill="#4caee5" d="M 164.5,198.5 C 148.214,208.315 131.547,217.648 114.5,226.5C 100.815,219.328 87.4817,211.661 74.5,203.5C 88.0827,134.751 127.749,88.2505 193.5,64C 223.222,52.6119 253.888,47.9452 285.5,50C 303.618,58.0674 310.785,71.9007 307,91.5C 304.078,101.424 297.912,108.591 288.5,113C 253.538,117.643 222.205,130.643 194.5,152C 180.08,164.68 170.08,180.18 164.5,198.5 Z"/></g>
<g><path style="opacity:0.994" fill="#e2edf7" d="M 436.5,294.5 C 423.796,285.812 410.463,278.146 396.5,271.5C 394.701,271.577 393.034,272.077 391.5,273C 376.765,282.032 361.765,290.532 346.5,298.5C 319.631,302.735 304.297,291.402 300.5,264.5C 300.752,256.91 302.919,249.91 307,243.5C 326.911,216.677 346.578,189.677 366,162.5C 378.953,146.986 394.786,143.153 413.5,151C 418.252,153.748 422.419,157.248 426,161.5C 445.422,188.677 465.089,215.677 485,242.5C 491.606,253.031 493.273,264.364 490,276.5C 481.923,295.106 467.756,302.606 447.5,299C 443.603,297.981 439.936,296.481 436.5,294.5 Z"/></g>
<g><path style="opacity:0.993" fill="#e2edf7" d="M 74.5,203.5 C 87.4817,211.661 100.815,219.328 114.5,226.5C 131.547,217.648 148.214,208.315 164.5,198.5C 188.733,194.861 203.899,204.861 210,228.5C 211.215,238.428 208.881,247.428 203,255.5C 183.089,282.323 163.422,309.323 144,336.5C 132.045,349.781 117.545,353.614 100.5,348C 95.4459,345.611 90.9459,342.445 87,338.5C 67,311.167 47,283.833 27,256.5C 18.2301,243.083 17.2301,229.083 24,214.5C 37.8009,196.84 54.6343,193.173 74.5,203.5 Z"/></g>
<g><path style="opacity:0.993" fill="#4caee5" d="M 436.5,294.5 C 422.912,363.596 382.912,410.096 316.5,434C 291.073,442.885 264.907,448.052 238,449.5C 215.999,448.423 204.166,436.923 202.5,415C 203.544,401.563 209.878,391.563 221.5,385C 251.836,380.779 279.836,370.446 305.5,354C 325.615,340.271 339.282,321.771 346.5,298.5C 361.765,290.532 376.765,282.032 391.5,273C 393.034,272.077 394.701,271.577 396.5,271.5C 410.463,278.146 423.796,285.812 436.5,294.5 Z"/></g>
</svg>
