<?xml version="1.0" encoding="UTF-8"?>
<!DOCTYPE svg PUBLIC "-//W3C//DTD SVG 1.1//EN" "http://www.w3.org/Graphics/SVG/1.1/DTD/svg11.dtd">
<svg xmlns="http://www.w3.org/2000/svg" version="1.1" width="512px" height="512px" style="shape-rendering:geometricPrecision; text-rendering:geometricPrecision; image-rendering:optimizeQuality; fill-rule:evenodd; clip-rule:evenodd" xmlns:xlink="http://www.w3.org/1999/xlink">
<g><path style="opacity:0.986" fill="#414141" d="M 217.5,31.5 C 242.836,31.3334 268.169,31.5 293.5,32C 302.482,36.4731 305.649,43.6397 303,53.5C 301.167,58 298,61.1667 293.5,63C 268.167,63.6667 242.833,63.6667 217.5,63C 210.513,60.1932 207.18,55.0265 207.5,47.5C 207.302,39.8846 210.635,34.5513 217.5,31.5 Z"/></g>
<g><path style="opacity:0.973" fill="#414141" d="M 250.5,94.5 C 317.605,94.97 371.438,121.637 412,174.5C 449.314,229.668 457.647,289.002 437,352.5C 407.416,426.067 353.25,468.234 274.5,479C 213.587,483.701 161.42,464.868 118,422.5C 111.391,411.053 113.891,402.219 125.5,396C 130.768,394.932 135.768,395.599 140.5,398C 182.602,439.031 232.602,454.031 290.5,443C 360.985,423.546 402.152,377.713 414,305.5C 418.505,251.666 401.339,206.166 362.5,169C 311.361,126.641 254.694,117.308 192.5,141C 172.416,150.369 154.416,162.702 138.5,178C 124.981,182.08 116.981,177.247 114.5,163.5C 114.369,159.393 115.536,155.726 118,152.5C 154.763,116.371 198.93,97.0374 250.5,94.5 Z"/></g>
<g><path style="opacity:0.978" fill="#414141" d="M 249.5,159.5 C 259.36,157.35 266.527,160.683 271,169.5C 271.333,206.5 271.667,243.5 272,280.5C 297.667,306.167 323.333,331.833 349,357.5C 355.294,375.867 348.794,384.367 329.5,383C 328.167,382.333 326.833,381.667 325.5,381C 297.667,353.167 269.833,325.333 242,297.5C 241.333,296.167 240.667,294.833 240,293.5C 239.333,252.167 239.333,210.833 240,169.5C 242.022,164.98 245.189,161.647 249.5,159.5 Z"/></g>
<g><path style="opacity:0.989" fill="#fbc02c" d="M 41.5,207.5 C 51.36,205.35 58.5267,208.683 63,217.5C 63.5004,244.715 76.667,262.215 102.5,270C 118.804,271.516 135.137,271.849 151.5,271C 144.333,263.833 137.167,256.667 130,249.5C 125.282,239.69 127.115,231.524 135.5,225C 141.645,222.815 147.645,223.148 153.5,226C 170.667,243.167 187.833,260.333 205,277.5C 208.333,284.167 208.333,290.833 205,297.5C 187.833,314.667 170.667,331.833 153.5,349C 135.133,355.294 126.633,348.794 128,329.5C 135.097,320.4 142.931,311.9 151.5,304C 133.833,303.667 116.167,303.333 98.5,303C 66.0085,296.176 44.5085,277.009 34,245.5C 30.8331,234.746 30.8331,224.079 34,213.5C 36.1141,210.879 38.6141,208.879 41.5,207.5 Z"/></g>
</svg>
