<?xml version="1.0" encoding="UTF-8"?>
<!DOCTYPE svg PUBLIC "-//W3C//DTD SVG 1.1//EN" "http://www.w3.org/Graphics/SVG/1.1/DTD/svg11.dtd">
<svg xmlns="http://www.w3.org/2000/svg" version="1.1" width="512px" height="512px" style="shape-rendering:geometricPrecision; text-rendering:geometricPrecision; image-rendering:optimizeQuality; fill-rule:evenodd; clip-rule:evenodd" xmlns:xlink="http://www.w3.org/1999/xlink">
<g><path style="opacity:0.996" fill="#6633ff" d="M 233.5,5.5 C 319.661,0.589432 391.161,30.2561 448,94.5C 502.367,163.662 518.367,240.995 496,326.5C 468.167,411.667 411.667,468.167 326.5,496C 240.991,518.366 163.658,502.366 94.5,448C 23.427,384.467 -5.07297,305.3 9,210.5C 25.8937,128.482 71.3937,68.3154 145.5,30C 173.562,16.8211 202.895,8.6544 233.5,5.5 Z"/></g>
<g><path style="opacity:1" fill="#fdfdff" d="M 223.5,93.5 C 275.099,89.5335 311.599,110.867 333,157.5C 342.326,180.551 341.66,203.218 331,225.5C 326.699,231.633 321.866,237.3 316.5,242.5C 312.167,238.833 308.167,234.833 304.5,230.5C 322.019,194.447 316.686,162.281 288.5,134C 255.722,109.757 222.722,109.424 189.5,133C 159.966,161.704 154.466,194.538 173,231.5C 200.069,268.348 234.569,277.348 276.5,258.5C 281.753,262.247 286.586,266.58 291,271.5C 291.667,272.5 291.667,273.5 291,274.5C 279.384,295.964 273.55,318.964 273.5,343.5C 250.5,343.5 227.5,343.5 204.5,343.5C 205.175,315.877 198.009,290.544 183,267.5C 173,256.167 163,244.833 153,233.5C 140.343,216.531 136.01,197.531 140,176.5C 150.464,131.202 178.297,103.536 223.5,93.5 Z"/></g>
<g><path style="opacity:1" fill="#fcfbff" d="M 227.5,123.5 C 268.854,121.233 295.021,139.9 306,179.5C 309.634,213.07 296.801,237.903 267.5,254C 236.914,266.416 210.08,260.916 187,237.5C 169.643,215.817 165.643,191.817 175,165.5C 185.786,143.033 203.286,129.033 227.5,123.5 Z"/></g>
<g><path style="opacity:1" fill="#6b39ff" d="M 253.5,144.5 C 253.183,147.572 253.516,150.572 254.5,153.5C 255.107,153.376 255.44,153.043 255.5,152.5C 257.296,151.207 258.963,149.707 260.5,148C 262.167,147.333 263.833,147.333 265.5,148C 271.333,153.833 277.167,159.667 283,165.5C 283.667,166.833 283.667,168.167 283,169.5C 280.833,171.667 278.667,173.833 276.5,176C 280.656,175.948 284.49,176.781 288,178.5C 288.667,187.5 288.667,196.5 288,205.5C 287.5,206 287,206.5 286.5,207C 283.167,207.333 279.833,207.667 276.5,208C 278.667,210.167 280.833,212.333 283,214.5C 283.667,215.833 283.667,217.167 283,218.5C 277.167,224.333 271.333,230.167 265.5,236C 263.833,236.667 262.167,236.667 260.5,236C 258.667,234.167 256.833,232.333 255,230.5C 254.667,233.5 254.333,236.5 254,239.5C 253.167,240.333 252.333,241.167 251.5,242C 242.833,242.667 234.167,242.667 225.5,242C 224.333,241.5 223.5,240.667 223,239.5C 222.667,236.5 222.333,233.5 222,230.5C 220.167,232.333 218.333,234.167 216.5,236C 214.833,236.667 213.167,236.667 211.5,236C 205.667,230.167 199.833,224.333 194,218.5C 193.333,217.167 193.333,215.833 194,214.5C 196.167,212.333 198.333,210.167 200.5,208C 197.167,207.667 193.833,207.333 190.5,207C 190,206.5 189.5,206 189,205.5C 188.333,196.167 188.333,186.833 189,177.5C 192.745,176.703 196.579,176.203 200.5,176C 198.333,173.833 196.167,171.667 194,169.5C 193.333,168.167 193.333,166.833 194,165.5C 199.833,159.667 205.667,153.833 211.5,148C 213.167,147.333 214.833,147.333 216.5,148C 218.333,149.833 220.167,151.667 222,153.5C 222.333,150.167 222.667,146.833 223,143.5C 223.5,143 224,142.5 224.5,142C 233.5,141.333 242.5,141.333 251.5,142C 252.756,142.417 253.423,143.25 253.5,144.5 Z"/></g>
<g><path style="opacity:1" fill="#9f7fff" d="M 253.5,144.5 C 254.167,147.167 254.833,149.833 255.5,152.5C 255.44,153.043 255.107,153.376 254.5,153.5C 253.516,150.572 253.183,147.572 253.5,144.5 Z"/></g>
<g><path style="opacity:1" fill="#fcfbff" d="M 230.5,149.5 C 235.833,149.5 241.167,149.5 246.5,149.5C 244.942,159.446 248.942,163.28 258.5,161C 260,159.5 261.5,158 263,156.5C 266.682,160.015 270.182,163.682 273.5,167.5C 271.851,169.65 270.018,171.65 268,173.5C 267.738,182.056 271.905,185.389 280.5,183.5C 280.5,188.833 280.5,194.167 280.5,199.5C 277.482,199.335 274.482,199.502 271.5,200C 269.004,203.136 267.837,206.636 268,210.5C 270.613,212.401 272.28,214.735 273,217.5C 269.667,220.833 266.333,224.167 263,227.5C 259.051,220.977 253.884,219.81 247.5,224C 246.544,227.394 246.211,230.894 246.5,234.5C 241.167,234.5 235.833,234.5 230.5,234.5C 232.551,225.161 228.884,220.995 219.5,222C 217.667,223.833 215.833,225.667 214,227.5C 210.667,224.167 207.333,220.833 204,217.5C 203.333,216.833 203.333,216.167 204,215.5C 210.644,211.081 211.144,206.081 205.5,200.5C 202.579,199.593 199.579,199.26 196.5,199.5C 196.5,194.167 196.5,188.833 196.5,183.5C 205.75,185.416 209.583,181.749 208,172.5C 205.705,170.92 204.372,168.92 204,166.5C 207.333,163.167 210.667,159.833 214,156.5C 218.545,163.677 223.878,164.343 230,158.5C 230.498,155.518 230.665,152.518 230.5,149.5 Z"/></g>
<g><path style="opacity:1" fill="#6b39ff" d="M 232.5,170.5 C 245.139,168.9 253.972,173.9 259,185.5C 261.408,202.252 254.241,211.586 237.5,213.5C 221.577,210.35 215.077,200.683 218,184.5C 221.408,178.257 226.242,173.59 232.5,170.5 Z"/></g>
<g><path style="opacity:1" fill="#fcfbff" d="M 233.5,178.5 C 247.167,177.666 253.001,184 251,197.5C 245.818,205.449 238.985,207.282 230.5,203C 221.856,193.691 222.856,185.524 233.5,178.5 Z"/></g>
<g><path style="opacity:1" fill="#fcfbff" d="M 299.5,237.5 C 323.465,260.965 347.299,284.632 371,308.5C 371.667,309.5 371.667,310.5 371,311.5C 366.5,316 362,320.5 357.5,325C 356.833,325.667 356.167,325.667 355.5,325C 332,301.5 308.5,278 285,254.5C 284.333,253.833 284.333,253.167 285,252.5C 290.709,248.292 295.542,243.292 299.5,237.5 Z"/></g>
<g><path style="opacity:1" fill="#6e3cff" d="M 304.5,256.5 C 306.655,256.372 308.655,256.872 310.5,258C 324.333,271.833 338.167,285.667 352,299.5C 354.436,304.397 352.936,306.564 347.5,306C 332.667,291.167 317.833,276.333 303,261.5C 302.387,259.505 302.887,257.838 304.5,256.5 Z"/></g>
<g><path style="opacity:1" fill="#fefffe" d="M 295.5,351.5 C 295.5,360.5 295.5,369.5 295.5,378.5C 257.833,378.5 220.167,378.5 182.5,378.5C 182.5,369.5 182.5,360.5 182.5,351.5C 220.167,351.5 257.833,351.5 295.5,351.5 Z"/></g>
<g><path style="opacity:1" fill="#ddd2ff" d="M 295.5,351.5 C 296.494,360.652 296.827,369.985 296.5,379.5C 258.33,379.832 220.33,379.499 182.5,378.5C 220.167,378.5 257.833,378.5 295.5,378.5C 295.5,369.5 295.5,360.5 295.5,351.5 Z"/></g>
<g><path style="opacity:1" fill="#a486ff" d="M 273.5,387.5 C 250.833,387.5 228.167,387.5 205.5,387.5C 205.5,388.5 205.5,389.5 205.5,390.5C 204.566,389.432 204.232,388.099 204.5,386.5C 227.673,386.169 250.673,386.502 273.5,387.5 Z"/></g>
<g><path style="opacity:1" fill="#fefdff" d="M 273.5,387.5 C 267.588,411.874 252.255,421.374 227.5,416C 215.392,411.616 208.059,403.116 205.5,390.5C 205.5,389.5 205.5,388.5 205.5,387.5C 228.167,387.5 250.833,387.5 273.5,387.5 Z"/></g>
</svg>
