<?xml version="1.0" encoding="UTF-8"?>
<!DOCTYPE svg PUBLIC "-//W3C//DTD SVG 1.1//EN" "http://www.w3.org/Graphics/SVG/1.1/DTD/svg11.dtd">
<svg xmlns="http://www.w3.org/2000/svg" version="1.1" width="512px" height="512px" style="shape-rendering:geometricPrecision; text-rendering:geometricPrecision; image-rendering:optimizeQuality; fill-rule:evenodd; clip-rule:evenodd" xmlns:xlink="http://www.w3.org/1999/xlink">
<g><path style="opacity:0.996" fill="#a500ff" d="M 214.5,31.5 C 214.5,137.5 214.5,243.5 214.5,349.5C 211.067,350.876 207.734,350.376 204.5,348C 198.312,343.303 192.312,338.469 186.5,333.5C 187.833,239.833 187.833,146.167 186.5,52.5C 192.631,45.8685 198.964,39.3685 205.5,33C 208.351,31.7114 211.351,31.2114 214.5,31.5 Z"/></g>
<g><path style="opacity:0.988" fill="#ab00ff" d="M 214.5,31.5 C 216.129,32.6253 217.629,33.9586 219,35.5C 219.5,62.8313 219.667,90.1646 219.5,117.5C 226.159,117.954 232.826,118.287 239.5,118.5C 240.495,167.762 240.828,217.095 240.5,266.5C 233.5,266.5 226.5,266.5 219.5,266.5C 219.667,292.835 219.5,319.169 219,345.5C 218.252,347.751 216.752,349.084 214.5,349.5C 214.5,243.5 214.5,137.5 214.5,31.5 Z"/></g>
<g><path style="opacity:0.998" fill="#9f00ff" d="M 186.5,52.5 C 187.833,146.167 187.833,239.833 186.5,333.5C 177.47,327.653 168.803,321.32 160.5,314.5C 161.497,235.571 161.83,156.571 161.5,77.5C 169.5,68.8333 177.833,60.5 186.5,52.5 Z"/></g>
<g><path style="opacity:0.994" fill="#9900ff" d="M 161.5,77.5 C 161.83,156.571 161.497,235.571 160.5,314.5C 150.101,307.307 140.101,299.64 130.5,291.5C 130.5,230.5 130.5,169.5 130.5,108.5C 140.5,97.8333 150.833,87.5 161.5,77.5 Z"/></g>
<g><path style="opacity:0.993" fill="#9200ff" d="M 130.5,108.5 C 130.5,169.5 130.5,230.5 130.5,291.5C 120.957,285.562 111.957,278.896 103.5,271.5C 103.5,226.167 103.5,180.833 103.5,135.5C 112.167,126.167 121.167,117.167 130.5,108.5 Z"/></g>
<g><path style="opacity:0.994" fill="#b100ff" d="M 239.5,118.5 C 249.841,118.649 260.174,118.982 270.5,119.5C 271.495,168.762 271.828,218.095 271.5,267.5C 261.159,267.351 250.826,267.018 240.5,266.5C 240.828,217.095 240.495,167.762 239.5,118.5 Z"/></g>
<g><path style="opacity:0.994" fill="#b800ff" d="M 270.5,119.5 C 279.837,119.745 289.171,120.078 298.5,120.5C 298.172,169.905 298.505,219.238 299.5,268.5C 290.195,267.646 280.861,267.313 271.5,267.5C 271.828,218.095 271.495,168.762 270.5,119.5 Z"/></g>
<g><path style="opacity:0.995" fill="#be00ff" d="M 298.5,120.5 C 307.669,121.416 316.669,123.083 325.5,125.5C 325.5,173.5 325.5,221.5 325.5,269.5C 316.845,268.917 308.178,268.584 299.5,268.5C 298.505,219.238 298.172,169.905 298.5,120.5 Z"/></g>
<g><path style="opacity:0.995" fill="#c400ff" d="M 325.5,125.5 C 334.489,127.163 343.156,129.83 351.5,133.5C 351.832,180.336 351.499,227.003 350.5,273.5C 342.299,271.433 333.966,270.099 325.5,269.5C 325.5,221.5 325.5,173.5 325.5,125.5 Z"/></g>
<g><path style="opacity:0.992" fill="#cb00ff" d="M 351.5,133.5 C 362.594,137.546 372.927,142.879 382.5,149.5C 382.5,202.5 382.5,255.5 382.5,308.5C 375.294,293.629 364.627,281.962 350.5,273.5C 351.499,227.003 351.832,180.336 351.5,133.5 Z"/></g>
<g><path style="opacity:0.987" fill="#8d00ff" d="M 103.5,135.5 C 103.5,180.833 103.5,226.167 103.5,271.5C 94.2837,265.065 85.2837,258.399 76.5,251.5C 77.8333,221.833 77.8333,192.167 76.5,162.5C 85.1667,153.167 94.1667,144.167 103.5,135.5 Z"/></g>
<g><path style="opacity:0.989" fill="#d100ff" d="M 382.5,149.5 C 392.936,154.596 401.936,161.596 409.5,170.5C 409.833,253.335 409.499,336.002 408.5,418.5C 403.231,392.562 398.065,366.562 393,340.5C 390.192,329.575 386.692,318.909 382.5,308.5C 382.5,255.5 382.5,202.5 382.5,149.5 Z"/></g>
<g><path style="opacity:0.979" fill="#8600ff" d="M 76.5,162.5 C 77.8333,192.167 77.8333,221.833 76.5,251.5C 61.3505,240.419 46.3505,229.085 31.5,217.5C 30.0924,213.761 30.2591,210.094 32,206.5C 46.7015,191.631 61.5348,176.965 76.5,162.5 Z"/></g>
<g><path style="opacity:0.993" fill="#d700ff" d="M 409.5,170.5 C 420.717,181.923 429.717,194.923 436.5,209.5C 435.501,296.998 435.167,384.665 435.5,472.5C 434.059,479.051 430.059,481.217 423.5,479C 422.069,478.535 420.903,477.701 420,476.5C 415.628,457.267 411.795,437.934 408.5,418.5C 409.499,336.002 409.833,253.335 409.5,170.5 Z"/></g>
<g><path style="opacity:0.983" fill="#dd00ff" d="M 436.5,209.5 C 456.008,247.354 465.341,287.687 464.5,330.5C 464.798,380.014 455.131,427.348 435.5,472.5C 435.167,384.665 435.501,296.998 436.5,209.5 Z"/></g>
</svg>
