<?xml version="1.0" encoding="UTF-8"?>
<!DOCTYPE svg PUBLIC "-//W3C//DTD SVG 1.1//EN" "http://www.w3.org/Graphics/SVG/1.1/DTD/svg11.dtd">
<svg xmlns="http://www.w3.org/2000/svg" version="1.1" width="512px" height="512px" style="shape-rendering:geometricPrecision; text-rendering:geometricPrecision; image-rendering:optimizeQuality; fill-rule:evenodd; clip-rule:evenodd" xmlns:xlink="http://www.w3.org/1999/xlink">
<g><path style="opacity:0.995" fill="#9eabb9" d="M 235.5,-0.5 C 248.833,-0.5 262.167,-0.5 275.5,-0.5C 279.525,1.2858 283.025,3.95246 286,7.5C 291.259,20.9431 295.926,34.6098 300,48.5C 301.717,53.5486 304.884,57.382 309.5,60C 316.167,62.6667 322.833,65.3333 329.5,68C 333.167,68.6667 336.833,68.6667 340.5,68C 350.369,62.8989 360.369,58.0656 370.5,53.5C 383.445,95.7311 384.945,138.398 375,181.5C 372.167,191.177 368.667,200.51 364.5,209.5C 358.047,159.539 330.714,127.039 282.5,112C 232.359,102.153 192.526,117.987 163,159.5C 143.195,193.74 141.195,229.073 157,265.5C 175.459,300.485 204.292,320.818 243.5,326.5C 243.842,327.338 244.508,327.672 245.5,327.5C 231.601,329.357 218.601,334.024 206.5,341.5C 205.903,340.861 205.07,340.528 204,340.5C 172.305,346.475 140.805,345.641 109.5,338C 103.134,336.492 97.1342,334.326 91.5,331.5C 95.9734,322.553 100.473,313.553 105,304.5C 105.906,302.256 106.406,299.923 106.5,297.5C 103.78,287.393 99.9465,277.726 95,268.5C 92.7664,266.3 90.2664,264.467 87.5,263C 73.3525,258.729 59.3525,254.062 45.5,249C 41.0721,245.908 38.2388,241.741 37,236.5C 36.3333,224.167 36.3333,211.833 37,199.5C 39.0133,192.819 43.18,187.986 49.5,185C 62.1667,181 74.8333,177 87.5,173C 91.6118,171.221 94.7785,168.388 97,164.5C 100.88,156.244 104.047,147.744 106.5,139C 106.238,136.453 105.738,133.953 105,131.5C 98.6667,119.167 92.3333,106.833 86,94.5C 84.2774,87.5627 85.2774,80.896 89,74.5C 96.5,67 104,59.5 111.5,52C 119.105,46.9334 127.105,46.2667 135.5,50C 147.041,56.2705 158.708,62.2705 170.5,68C 174.167,68.6667 177.833,68.6667 181.5,68C 188.167,65.3333 194.833,62.6667 201.5,60C 206.116,57.382 209.283,53.5486 211,48.5C 215.074,34.6098 219.741,20.9431 225,7.5C 227.975,3.95246 231.475,1.2858 235.5,-0.5 Z"/></g>
<g><path style="opacity:1" fill="#8d9ca8" d="M 332.5,367.5 C 326.194,359.194 318.861,351.861 310.5,345.5C 291.111,331.659 269.444,325.659 245.5,327.5C 244.508,327.672 243.842,327.338 243.5,326.5C 296.797,329.324 334.63,306.657 357,258.5C 362.8,242.669 365.3,226.336 364.5,209.5C 368.667,200.51 372.167,191.177 375,181.5C 384.945,138.398 383.445,95.7311 370.5,53.5C 378.358,47.1247 387.025,45.958 396.5,50C 407.411,58.9091 416.911,69.0758 425,80.5C 425.667,85.1667 425.667,89.8333 425,94.5C 418.922,106.99 412.589,119.323 406,131.5C 404.595,135.072 404.262,138.739 405,142.5C 407.333,148.5 409.667,154.5 412,160.5C 414.106,166.272 417.939,170.438 423.5,173C 436.167,177 448.833,181 461.5,185C 467.82,187.986 471.987,192.819 474,199.5C 474.667,211.833 474.667,224.167 474,236.5C 472.761,241.741 469.928,245.908 465.5,249C 451.648,254.062 437.648,258.729 423.5,263C 419.388,264.779 416.222,267.612 414,271.5C 411,278.833 408,286.167 405,293.5C 404.333,296.167 404.333,298.833 405,301.5C 411.139,315.112 417.806,328.445 425,341.5C 426.356,348.576 425.356,355.243 422,361.5C 414.5,369 407,376.5 399.5,384C 394.09,387.852 388.09,389.185 381.5,388C 368.596,382.215 355.929,375.881 343.5,369C 339.94,367.763 336.273,367.263 332.5,367.5 Z"/></g>
<g><path style="opacity:0.997" fill="#596c76" d="M 364.5,209.5 C 365.3,226.336 362.8,242.669 357,258.5C 334.63,306.657 296.797,329.324 243.5,326.5C 204.292,320.818 175.459,300.485 157,265.5C 141.195,229.073 143.195,193.74 163,159.5C 192.526,117.987 232.359,102.153 282.5,112C 330.714,127.039 358.047,159.539 364.5,209.5 Z M 246.5,160.5 C 283.461,158.965 305.627,176.298 313,212.5C 313.278,246.118 297.111,266.951 264.5,275C 227.512,277.016 205.345,259.849 198,223.5C 197.85,189.828 214.017,168.828 246.5,160.5 Z"/></g>
<g><path style="opacity:0.999" fill="#88f1a9" d="M 245.5,327.5 C 269.444,325.659 291.111,331.659 310.5,345.5C 335.155,385.846 332.655,424.513 303,461.5C 271.402,491.952 235.235,498.785 194.5,482C 190.411,479.873 186.577,477.373 183,474.5C 182.601,474.728 182.435,475.062 182.5,475.5C 175.557,467.293 170.391,457.959 167,447.5C 158.96,419.075 162.794,392.408 178.5,367.5C 186.225,357.109 195.558,348.442 206.5,341.5C 218.601,334.024 231.601,329.357 245.5,327.5 Z"/></g>
<g><path style="opacity:1" fill="#8d9ca8" d="M 91.5,331.5 C 97.1342,334.326 103.134,336.492 109.5,338C 140.805,345.641 172.305,346.475 204,340.5C 205.07,340.528 205.903,340.861 206.5,341.5C 195.558,348.442 186.225,357.109 178.5,367.5C 174.727,367.263 171.06,367.763 167.5,369C 156.167,375 144.833,381 133.5,387C 125.637,389.572 118.304,388.572 111.5,384C 104,376.5 96.5,369 89,361.5C 83.1224,351.053 83.9557,341.053 91.5,331.5 Z"/></g>
<g><path style="opacity:0.997" fill="#80e29e" d="M 310.5,345.5 C 318.861,351.861 326.194,359.194 332.5,367.5C 354.716,405.118 353.216,441.785 328,477.5C 312.639,495.931 293.139,507.264 269.5,511.5C 260.167,511.5 250.833,511.5 241.5,511.5C 216.868,507.363 197.201,495.363 182.5,475.5C 182.435,475.062 182.601,474.728 183,474.5C 186.577,477.373 190.411,479.873 194.5,482C 235.235,498.785 271.402,491.952 303,461.5C 332.655,424.513 335.155,385.846 310.5,345.5 Z"/></g>
<g><path style="opacity:1" fill="#d1effb" d="M 247.5,361.5 C 276.063,360.022 296.563,372.022 309,397.5C 317.665,423.173 312.165,445.34 292.5,464C 280.421,473.436 266.754,477.436 251.5,476C 245.925,470.885 246.258,466.219 252.5,462C 284.157,459.344 298.991,442.177 297,410.5C 289.233,386.405 272.733,375.571 247.5,378C 233.03,381.131 222.696,389.464 216.5,403C 223.839,404.533 226.339,408.7 224,415.5C 219.101,419.699 213.934,423.532 208.5,427C 205.697,427.755 203.03,427.422 200.5,426C 197,421.167 193.5,416.333 190,411.5C 189.008,402.994 192.842,399.327 201.5,400.5C 209.688,379.073 225.021,366.073 247.5,361.5 Z"/></g>
</svg>
