<?xml version="1.0" encoding="UTF-8"?>
<!DOCTYPE svg PUBLIC "-//W3C//DTD SVG 1.1//EN" "http://www.w3.org/Graphics/SVG/1.1/DTD/svg11.dtd">
<svg xmlns="http://www.w3.org/2000/svg" version="1.1" width="512px" height="512px" style="shape-rendering:geometricPrecision; text-rendering:geometricPrecision; image-rendering:optimizeQuality; fill-rule:evenodd; clip-rule:evenodd" xmlns:xlink="http://www.w3.org/1999/xlink">
<g><path style="opacity:0.998" fill="#e70354" d="M 63.5,-0.5 C 108.833,-0.5 154.167,-0.5 199.5,-0.5C 191.294,4.78159 189.46,11.7816 194,20.5C 195.409,21.7811 196.909,22.7811 198.5,23.5C 186.829,23.3335 175.162,23.5001 163.5,24C 161,25.1667 159.167,27 158,29.5C 157.333,54.1667 157.333,78.8333 158,103.5C 158.786,106.583 160.619,108.749 163.5,110C 174.828,110.5 186.162,110.667 197.5,110.5C 187.162,116.848 185.829,124.848 193.5,134.5C 150.499,134.667 107.499,134.5 64.5,134C 60.3283,132.412 56.3283,130.579 52.5,128.5C 48.2289,124.376 45.3956,119.376 44,113.5C 43.3333,82.5 43.3333,51.5 44,20.5C 46.9227,10.0805 53.4227,3.0805 63.5,-0.5 Z"/></g>
<g><path style="opacity:0.999" fill="#fe4256" d="M 199.5,-0.5 C 275.5,-0.5 351.5,-0.5 427.5,-0.5C 436.816,2.65054 442.983,8.98387 446,18.5C 447.809,49.8259 447.976,81.1592 446.5,112.5C 443.792,123.71 436.792,130.876 425.5,134C 348.167,134.5 270.834,134.667 193.5,134.5C 185.829,124.848 187.162,116.848 197.5,110.5C 205.525,107.795 207.692,102.461 204,94.5C 202.512,92.84 200.679,91.84 198.5,91.5C 196.64,86.807 195.974,81.807 196.5,76.5C 203.079,73.9965 205.246,69.3298 203,62.5C 201.442,59.9787 199.275,58.312 196.5,57.5C 195.974,52.193 196.64,47.193 198.5,42.5C 203.613,41.4588 205.946,38.2921 205.5,33C 205.946,27.7079 203.613,24.5412 198.5,23.5C 196.909,22.7811 195.409,21.7811 194,20.5C 189.46,11.7816 191.294,4.78159 199.5,-0.5 Z"/></g>
<g><path style="opacity:1" fill="#deebfd" d="M 97.5,22.5 C 107.233,22.1091 116.9,22.6091 126.5,24C 146.294,32.0942 151.794,45.9275 143,65.5C 139.225,70.1132 134.725,73.7798 129.5,76.5C 135.522,83.3539 141.355,90.3539 147,97.5C 147.578,108.912 142.412,112.745 131.5,109C 124.667,101.5 117.833,94 111,86.5C 110.667,92.1667 110.333,97.8333 110,103.5C 107.575,109.795 103.075,111.962 96.5,110C 94.714,109.215 93.214,108.049 92,106.5C 90.3612,80.8958 90.0279,55.2292 91,29.5C 92.6941,26.6424 94.8607,24.309 97.5,22.5 Z"/></g>
<g><path style="opacity:1" fill="#deecfd" d="M 198.5,23.5 C 203.613,24.5412 205.946,27.7079 205.5,33C 205.946,38.2921 203.613,41.4588 198.5,42.5C 191.5,42.5 184.5,42.5 177.5,42.5C 177.5,47.5 177.5,52.5 177.5,57.5C 183.833,57.5 190.167,57.5 196.5,57.5C 199.275,58.312 201.442,59.9787 203,62.5C 205.246,69.3298 203.079,73.9965 196.5,76.5C 190.167,76.5 183.833,76.5 177.5,76.5C 177.5,81.5 177.5,86.5 177.5,91.5C 184.5,91.5 191.5,91.5 198.5,91.5C 200.679,91.84 202.512,92.84 204,94.5C 207.692,102.461 205.525,107.795 197.5,110.5C 186.162,110.667 174.828,110.5 163.5,110C 160.619,108.749 158.786,106.583 158,103.5C 157.333,78.8333 157.333,54.1667 158,29.5C 159.167,27 161,25.1667 163.5,24C 175.162,23.5001 186.829,23.3335 198.5,23.5 Z"/></g>
<g><path style="opacity:1" fill="#deebfc" d="M 239.5,22.5 C 252.753,21.6821 264.253,25.6821 274,34.5C 275.943,44.8348 271.776,49.6681 261.5,49C 255.688,44.0909 249.021,42.0909 241.5,43C 237.646,44.6076 236.646,47.2742 238.5,51C 248.536,54.5651 258.202,58.8984 267.5,64C 278.625,73.9778 280.459,85.4778 273,98.5C 257.244,114.175 240.077,115.675 221.5,103C 218.628,100.463 216.128,97.6301 214,94.5C 212.885,84.9484 217.051,80.7818 226.5,82C 230.11,83.944 233.443,86.2774 236.5,89C 243.962,92.8796 250.796,92.0463 257,86.5C 258.041,83.3637 257.207,80.8637 254.5,79C 244.935,75.5509 235.601,71.5509 226.5,67C 217.083,58.472 214.916,48.3054 220,36.5C 224.722,29.2342 231.222,24.5675 239.5,22.5 Z"/></g>
<g><path style="opacity:1" fill="#deebfc" d="M 290.5,23.5 C 302.838,23.3335 315.171,23.5001 327.5,24C 334.543,28.8885 335.21,34.5552 329.5,41C 321.277,42.4381 312.943,42.9381 304.5,42.5C 304.5,47.5 304.5,52.5 304.5,57.5C 311.508,57.3337 318.508,57.5004 325.5,58C 333.5,64 333.5,70 325.5,76C 318.508,76.4996 311.508,76.6663 304.5,76.5C 304.5,81.1667 304.5,85.8333 304.5,90.5C 311.508,90.3337 318.508,90.5004 325.5,91C 333.213,94.5838 335.046,100.084 331,107.5C 330.097,108.701 328.931,109.535 327.5,110C 315.167,110.667 302.833,110.667 290.5,110C 287.619,108.749 285.786,106.583 285,103.5C 284.333,79.1667 284.333,54.8333 285,30.5C 285.967,27.3794 287.8,25.046 290.5,23.5 Z"/></g>
<g><path style="opacity:1" fill="#deecfd" d="M 349.5,22.5 C 363.837,22.3334 378.171,22.5001 392.5,23C 399.482,26.2131 401.315,31.3797 398,38.5C 396.681,40.4875 394.848,41.6541 392.5,42C 388.514,42.4988 384.514,42.6655 380.5,42.5C 380.667,63.5026 380.5,84.5026 380,105.5C 374,113.5 368,113.5 362,105.5C 361.5,84.5026 361.333,63.5026 361.5,42.5C 357.154,42.6657 352.821,42.499 348.5,42C 342.975,39.0812 341.142,34.5812 343,28.5C 344.914,26.1435 347.081,24.1435 349.5,22.5 Z"/></g>
<g><path style="opacity:1" fill="#e80d57" d="M 110.5,42.5 C 114.182,42.3347 117.848,42.5014 121.5,43C 127.636,45.6737 128.97,49.8403 125.5,55.5C 124.335,56.5836 123.002,57.4169 121.5,58C 117.848,58.4986 114.182,58.6653 110.5,58.5C 110.5,53.1667 110.5,47.8333 110.5,42.5 Z"/></g>
<g><path style="opacity:1" fill="#e81f5c" d="M 198.5,42.5 C 196.64,47.193 195.974,52.193 196.5,57.5C 190.167,57.5 183.833,57.5 177.5,57.5C 177.5,52.5 177.5,47.5 177.5,42.5C 184.5,42.5 191.5,42.5 198.5,42.5 Z"/></g>
<g><path style="opacity:1" fill="#e8205c" d="M 196.5,76.5 C 195.974,81.807 196.64,86.807 198.5,91.5C 191.5,91.5 184.5,91.5 177.5,91.5C 177.5,86.5 177.5,81.5 177.5,76.5C 183.833,76.5 190.167,76.5 196.5,76.5 Z"/></g>
<g><path style="opacity:0.998" fill="#47354f" d="M 446.5,112.5 C 458.499,127.146 468.499,143.146 476.5,160.5C 454.408,161.079 434.075,167.246 415.5,179C 403.01,188.981 397.01,201.981 397.5,218C 399.874,247.789 409.041,275.289 425,300.5C 439.881,324.546 458.715,344.879 481.5,361.5C 469.542,391.774 451.876,418.107 428.5,440.5C 425.928,435.011 423.595,429.344 421.5,423.5C 421.517,413.324 421.85,403.158 422.5,393C 422.506,387.778 422.006,382.611 421,377.5C 411.124,347.872 400.457,318.538 389,289.5C 379.503,278.889 369.836,278.889 360,289.5C 358.031,293.232 357.031,297.232 357,301.5C 354.932,289.259 347.765,282.925 335.5,282.5C 335.667,251.165 335.5,219.832 335,188.5C 330.108,174.274 320.274,165.774 305.5,163C 278.169,162.5 250.835,162.333 223.5,162.5C 208.775,162.068 194.108,162.568 179.5,164C 166.498,168.336 158.331,177.17 155,190.5C 154.833,211 154.667,231.5 154.5,252C 154.366,274.535 154.866,297.035 156,319.5C 161.2,332.702 170.7,340.868 184.5,344C 210.165,344.5 235.831,344.667 261.5,344.5C 263.875,349.953 265.875,355.619 267.5,361.5C 262.506,364.429 257.672,367.762 253,371.5C 251.336,374.327 250.17,377.327 249.5,380.5C 244.732,403.008 251.732,421.175 270.5,435C 285.583,443.6 300.25,452.766 314.5,462.5C 316.451,463.716 317.951,465.382 319,467.5C 322.905,478.304 327.072,488.97 331.5,499.5C 313.963,505.644 295.963,509.644 277.5,511.5C 265.833,511.5 254.167,511.5 242.5,511.5C 248.452,483.747 242.285,459.08 224,437.5C 215.182,428.022 205.348,419.855 194.5,413C 181.287,406.481 167.954,400.148 154.5,394C 134.709,381.866 121.209,364.699 114,342.5C 107.804,320.605 104.137,298.272 103,275.5C 102.667,259.833 102.333,244.167 102,228.5C 98.5588,200.429 84.7254,179.263 60.5,165C 53.0501,160.94 45.3834,157.44 37.5,154.5C 41.4929,145.172 46.4929,136.505 52.5,128.5C 56.3283,130.579 60.3283,132.412 64.5,134C 107.499,134.5 150.499,134.667 193.5,134.5C 270.834,134.667 348.167,134.5 425.5,134C 436.792,130.876 443.792,123.71 446.5,112.5 Z"/></g>
<g><path style="opacity:1" fill="#55405d" d="M 37.5,154.5 C 45.3834,157.44 53.0501,160.94 60.5,165C 84.7254,179.263 98.5588,200.429 102,228.5C 102.333,244.167 102.667,259.833 103,275.5C 104.137,298.272 107.804,320.605 114,342.5C 121.209,364.699 134.709,381.866 154.5,394C 167.954,400.148 181.287,406.481 194.5,413C 205.348,419.855 215.182,428.022 224,437.5C 242.285,459.08 248.452,483.747 242.5,511.5C 239.5,511.5 236.5,511.5 233.5,511.5C 148.636,501.34 84.4689,459.674 41,386.5C 5.86954,319.381 0.86954,250.048 26,178.5C 29.063,170.044 32.8963,162.044 37.5,154.5 Z"/></g>
<g><path style="opacity:1" fill="#55405d" d="M 476.5,160.5 C 498.705,206.43 505.872,254.764 498,305.5C 494.96,325.013 489.46,343.68 481.5,361.5C 458.715,344.879 439.881,324.546 425,300.5C 409.041,275.289 399.874,247.789 397.5,218C 397.01,201.981 403.01,188.981 415.5,179C 434.075,167.246 454.408,161.079 476.5,160.5 Z"/></g>
<g><path style="opacity:1" fill="#bdc6f5" d="M 223.5,162.5 C 215.865,178.791 219.531,191.957 234.5,202C 235.793,202.49 237.127,202.657 238.5,202.5C 219.593,206.232 206.093,216.899 198,234.5C 190.252,259.586 196.752,280.086 217.5,296C 223.927,300.197 230.927,302.697 238.5,303.5C 241.358,304.166 244.358,304.833 247.5,305.5C 252.568,318.371 257.235,331.371 261.5,344.5C 235.831,344.667 210.165,344.5 184.5,344C 170.7,340.868 161.2,332.702 156,319.5C 154.866,297.035 154.366,274.535 154.5,252C 154.667,231.5 154.833,211 155,190.5C 158.331,177.17 166.498,168.336 179.5,164C 194.108,162.568 208.775,162.068 223.5,162.5 Z"/></g>
<g><path style="opacity:1" fill="#ddedfe" d="M 223.5,162.5 C 250.835,162.333 278.169,162.5 305.5,163C 320.274,165.774 330.108,174.274 335,188.5C 335.5,219.832 335.667,251.165 335.5,282.5C 325.634,284.857 320.467,291.191 320,301.5C 314.022,291.212 305.522,288.378 294.5,293C 288.88,297.073 286.047,302.573 286,309.5C 283.526,303.243 281.359,296.91 279.5,290.5C 294.92,275.035 299.42,256.701 293,235.5C 282.294,212.389 264.127,201.389 238.5,202.5C 237.127,202.657 235.793,202.49 234.5,202C 219.531,191.957 215.865,178.791 223.5,162.5 Z"/></g>
<g><path style="opacity:1" fill="#fe4256" d="M 238.5,202.5 C 264.127,201.389 282.294,212.389 293,235.5C 299.42,256.701 294.92,275.035 279.5,290.5C 275.462,280.729 271.796,270.729 268.5,260.5C 271.779,257.045 274.946,253.379 278,249.5C 284.537,231.749 279.037,219.582 261.5,213C 246.459,210.435 236.293,216.268 231,230.5C 230.333,234.833 230.333,239.167 231,243.5C 232.55,248.195 234.717,252.529 237.5,256.5C 237.5,257.167 237.5,257.833 237.5,258.5C 234.871,262.027 234.038,266.027 235,270.5C 238.943,281.498 242.776,292.498 246.5,303.5C 243.833,303.5 241.167,303.5 238.5,303.5C 230.927,302.697 223.927,300.197 217.5,296C 196.752,280.086 190.252,259.586 198,234.5C 206.093,216.899 219.593,206.232 238.5,202.5 Z"/></g>
<g><path style="opacity:1" fill="#ff7085" d="M 268.5,260.5 C 266.527,257.194 263.861,254.527 260.5,252.5C 251.87,247.925 244.203,249.258 237.5,256.5C 234.717,252.529 232.55,248.195 231,243.5C 230.333,239.167 230.333,234.833 231,230.5C 236.293,216.268 246.459,210.435 261.5,213C 279.037,219.582 284.537,231.749 278,249.5C 274.946,253.379 271.779,257.045 268.5,260.5 Z"/></g>
<g><path style="opacity:1" fill="#fce3d7" d="M 260.5,252.5 C 262.03,257.922 263.863,263.255 266,268.5C 267.202,272.793 266.035,276.293 262.5,279C 257.691,281.386 252.691,282.72 247.5,283C 246.421,282.044 245.255,281.211 244,280.5C 240.51,273.531 238.343,266.198 237.5,258.5C 237.5,257.833 237.5,257.167 237.5,256.5C 244.203,249.258 251.87,247.925 260.5,252.5 Z"/></g>
<g><path style="opacity:1" fill="#fec6aa" d="M 260.5,252.5 C 263.861,254.527 266.527,257.194 268.5,260.5C 271.796,270.729 275.462,280.729 279.5,290.5C 281.359,296.91 283.526,303.243 286,309.5C 286.047,302.573 288.88,297.073 294.5,293C 305.522,288.378 314.022,291.212 320,301.5C 320.467,291.191 325.634,284.857 335.5,282.5C 347.765,282.925 354.932,289.259 357,301.5C 357.031,297.232 358.031,293.232 360,289.5C 369.836,278.889 379.503,278.889 389,289.5C 400.457,318.538 411.124,347.872 421,377.5C 422.006,382.611 422.506,387.778 422.5,393C 421.85,403.158 421.517,413.324 421.5,423.5C 420.686,421.369 420.186,419.036 420,416.5C 403.009,443.425 378.509,458.259 346.5,461C 335.659,461.17 324.992,461.67 314.5,462.5C 300.25,452.766 285.583,443.6 270.5,435C 251.732,421.175 244.732,403.008 249.5,380.5C 252.714,384.88 256.714,388.38 261.5,391C 272.045,391.784 276.212,386.95 274,376.5C 271.906,371.358 269.74,366.358 267.5,361.5C 265.875,355.619 263.875,349.953 261.5,344.5C 257.235,331.371 252.568,318.371 247.5,305.5C 244.358,304.833 241.358,304.166 238.5,303.5C 241.167,303.5 243.833,303.5 246.5,303.5C 242.776,292.498 238.943,281.498 235,270.5C 234.038,266.027 234.871,262.027 237.5,258.5C 238.343,266.198 240.51,273.531 244,280.5C 245.255,281.211 246.421,282.044 247.5,283C 252.691,282.72 257.691,281.386 262.5,279C 266.035,276.293 267.202,272.793 266,268.5C 263.863,263.255 262.03,257.922 260.5,252.5 Z"/></g>
<g><path style="opacity:1" fill="#fda97b" d="M 267.5,361.5 C 269.74,366.358 271.906,371.358 274,376.5C 276.212,386.95 272.045,391.784 261.5,391C 256.714,388.38 252.714,384.88 249.5,380.5C 250.17,377.327 251.336,374.327 253,371.5C 257.672,367.762 262.506,364.429 267.5,361.5 Z"/></g>
<g><path style="opacity:0.986" fill="#feaa7b" d="M 421.5,423.5 C 423.595,429.344 425.928,435.011 428.5,440.5C 401.132,468.031 368.799,487.698 331.5,499.5C 327.072,488.97 322.905,478.304 319,467.5C 317.951,465.382 316.451,463.716 314.5,462.5C 324.992,461.67 335.659,461.17 346.5,461C 378.509,458.259 403.009,443.425 420,416.5C 420.186,419.036 420.686,421.369 421.5,423.5 Z"/></g>
</svg>
