<?xml version="1.0" encoding="UTF-8"?>
<!DOCTYPE svg PUBLIC "-//W3C//DTD SVG 1.1//EN" "http://www.w3.org/Graphics/SVG/1.1/DTD/svg11.dtd">
<svg xmlns="http://www.w3.org/2000/svg" version="1.1" width="512px" height="512px" style="shape-rendering:geometricPrecision; text-rendering:geometricPrecision; image-rendering:optimizeQuality; fill-rule:evenodd; clip-rule:evenodd" xmlns:xlink="http://www.w3.org/1999/xlink">
<g><path style="opacity:0.955" fill="#66291e" d="M 428.5,67.5 C 433.43,67.1975 438.263,67.5308 443,68.5C 441.944,136.749 422.944,199.416 386,256.5C 366.628,281.539 344.295,303.539 319,322.5C 325.768,361.243 312.935,391.409 280.5,413C 261.205,423.423 240.872,426.089 219.5,421C 218.424,419.274 218.257,417.441 219,415.5C 236.324,403.196 246.824,386.529 250.5,365.5C 239.74,369.753 228.74,373.42 217.5,376.5C 213.999,375.507 211.166,373.507 209,370.5C 201.921,378.251 194.254,385.251 186,391.5C 184.739,391.241 183.739,390.574 183,389.5C 177.457,406.042 166.29,416.876 149.5,422C 123.201,432.158 96.201,438.991 68.5,442.5C 72.3261,409.877 81.1594,378.543 95,348.5C 101.076,338.547 109.576,331.547 120.5,327.5C 119.238,325.425 119.405,323.425 121,321.5C 127.5,315 134,308.5 140.5,302C 137.675,299.857 135.675,297.19 134.5,294C 137.074,283.111 140.741,272.611 145.5,262.5C 136.33,263.166 127.663,266 119.5,271C 110.323,276.755 102.657,284.088 96.5,293C 94.7412,293.798 93.0745,293.631 91.5,292.5C 83.2143,251.835 96.881,221.001 132.5,200C 150.134,191.861 168.467,189.528 187.5,193C 211.803,159.691 241.47,132.358 276.5,111C 324.241,85.9015 374.908,71.4015 428.5,67.5 Z"/></g>
<g><path style="opacity:1" fill="#e54c3b" d="M 435.5,74.5 C 431.251,107.748 422.418,139.748 409,170.5C 406.313,176.552 403.146,182.219 399.5,187.5C 371.035,158.535 342.368,129.701 313.5,101C 352.553,84.8224 393.22,75.989 435.5,74.5 Z"/></g>
<g><path style="opacity:1" fill="#c44233" d="M 435.5,74.5 C 434.82,116.918 426.32,157.918 410,197.5C 406.604,193.935 403.104,190.602 399.5,187.5C 403.146,182.219 406.313,176.552 409,170.5C 422.418,139.748 431.251,107.748 435.5,74.5 Z"/></g>
<g><path style="opacity:1" fill="#fefefe" d="M 396.5,193.5 C 385.429,214.09 371.429,232.59 354.5,249C 322.218,280.605 285.551,305.938 244.5,325C 235.678,328.663 226.678,331.83 217.5,334.5C 194.812,312.479 172.479,290.146 150.5,267.5C 161.928,241.261 176.428,216.927 194,194.5C 208.351,177.336 223.518,160.836 239.5,145C 249.134,136.533 259.467,129.033 270.5,122.5C 277.35,128.517 283.684,135.017 289.5,142C 293.391,144.112 295.224,142.946 295,138.5C 288.652,132.319 282.485,125.986 276.5,119.5C 285.755,113.286 295.588,107.952 306,103.5C 336.661,132.994 366.828,162.994 396.5,193.5 Z"/></g>
<g><path style="opacity:1" fill="#743b30" d="M 306.5,152.5 C 307.552,152.351 308.552,152.517 309.5,153C 320.048,163.046 330.048,173.546 339.5,184.5C 338.123,187.695 336.123,188.195 333.5,186C 324,176.5 314.5,167 305,157.5C 304.387,155.505 304.887,153.838 306.5,152.5 Z"/></g>
<g><path style="opacity:1" fill="#682c22" d="M 265.5,181.5 C 298.701,178.567 320.201,192.9 330,224.5C 333.714,248.889 325.547,268.056 305.5,282C 278.091,296.384 253.924,292.217 233,269.5C 214.695,240.037 218.528,213.871 244.5,191C 251.095,186.698 258.095,183.531 265.5,181.5 Z"/></g>
<g><path style="opacity:1" fill="#95cfea" d="M 324.5,242.5 C 319.163,234.321 312.496,227.154 304.5,221C 272.094,205.262 246.76,212.762 228.5,243.5C 226.301,214.859 238.968,196.359 266.5,188C 294.547,184.76 313.38,196.26 323,222.5C 324.274,229.103 324.774,235.77 324.5,242.5 Z"/></g>
<g><path style="opacity:1" fill="#d8d8d8" d="M 396.5,193.5 C 400.479,196.812 404.146,200.479 407.5,204.5C 391.022,242.821 366.688,275.321 334.5,302C 302.944,330.179 267.277,351.846 227.5,367C 223.892,368.323 220.225,368.989 216.5,369C 192.333,343.5 167.5,318.667 142,294.5C 143.128,284.949 145.962,275.949 150.5,267.5C 172.479,290.146 194.812,312.479 217.5,334.5C 226.678,331.83 235.678,328.663 244.5,325C 285.551,305.938 322.218,280.605 354.5,249C 371.429,232.59 385.429,214.09 396.5,193.5 Z"/></g>
<g><path style="opacity:1" fill="#7b7977" d="M 179.5,198.5 C 139.439,205.562 116.106,229.228 109.5,269.5C 104.531,273.637 100.031,278.304 96,283.5C 92.2503,243.514 109.084,216.014 146.5,201C 157.342,197.647 168.342,196.814 179.5,198.5 Z"/></g>
<g><path style="opacity:1" fill="#656462" d="M 179.5,198.5 C 180.978,198.238 182.311,198.571 183.5,199.5C 170.58,216.326 159.413,234.326 150,253.5C 143.169,255.202 136.336,257.035 129.5,259C 122.622,262.271 115.955,265.771 109.5,269.5C 116.106,229.228 139.439,205.562 179.5,198.5 Z"/></g>
<g><path style="opacity:1" fill="#73c1e4" d="M 324.5,242.5 C 318.637,268.696 302.303,282.696 275.5,284.5C 258.136,283.408 244.636,275.741 235,261.5C 231.932,255.793 229.765,249.793 228.5,243.5C 246.76,212.762 272.094,205.262 304.5,221C 312.496,227.154 319.163,234.321 324.5,242.5 Z"/></g>
<g><path style="opacity:1" fill="#656462" d="M 199.5,360.5 C 194.869,364.63 190.369,368.963 186,373.5C 168.299,355.632 150.465,337.965 132.5,320.5C 136.797,315.702 141.297,311.035 146,306.5C 164.035,324.368 181.868,342.368 199.5,360.5 Z"/></g>
<g><path style="opacity:1" fill="#7b7b79" d="M 132.5,320.5 C 150.465,337.965 168.299,355.632 186,373.5C 190.369,368.963 194.869,364.63 199.5,360.5C 201.296,361.793 202.963,363.293 204.5,365C 198.333,371.167 192.167,377.333 186,383.5C 166.5,364 147,344.5 127.5,325C 129.037,323.293 130.704,321.793 132.5,320.5 Z"/></g>
<g><path style="opacity:1" fill="#656462" d="M 313.5,331.5 C 306.895,372.105 283.228,395.772 242.5,402.5C 250.76,389.735 256.093,375.735 258.5,360.5C 277.011,351.419 294.344,340.585 310.5,328C 312.934,327.667 313.934,328.834 313.5,331.5 Z"/></g>
<g><path style="opacity:1" fill="#f6cb61" d="M 133.5,339.5 C 129.566,341.598 126.4,344.598 124,348.5C 116.23,363.474 110.23,379.14 106,395.5C 103.312,407.25 100.479,418.917 97.5,430.5C 90.4442,433.1 83.1108,435.1 75.5,436.5C 78.9162,413.382 84.7495,390.715 93,368.5C 96.5869,358.155 102.087,348.988 109.5,341C 115.163,336.661 121.497,334.327 128.5,334C 130.373,335.704 132.04,337.537 133.5,339.5 Z"/></g>
<g><path style="opacity:1" fill="#7b7a77" d="M 313.5,331.5 C 316.679,368.982 301.345,395.815 267.5,412C 254.8,417.008 241.8,418.341 228.5,416C 233.696,411.969 238.363,407.469 242.5,402.5C 283.228,395.772 306.895,372.105 313.5,331.5 Z"/></g>
<g><path style="opacity:1" fill="#f5bd2f" d="M 133.5,339.5 C 148.132,353.631 162.632,367.965 177,382.5C 176.11,393.773 170.943,402.606 161.5,409C 141.183,419.245 119.85,426.411 97.5,430.5C 100.479,418.917 103.312,407.25 106,395.5C 110.23,379.14 116.23,363.474 124,348.5C 126.4,344.598 129.566,341.598 133.5,339.5 Z"/></g>
</svg>
