<?xml version="1.0" encoding="UTF-8"?>
<!DOCTYPE svg PUBLIC "-//W3C//DTD SVG 1.1//EN" "http://www.w3.org/Graphics/SVG/1.1/DTD/svg11.dtd">
<svg xmlns="http://www.w3.org/2000/svg" version="1.1" width="512px" height="512px" style="shape-rendering:geometricPrecision; text-rendering:geometricPrecision; image-rendering:optimizeQuality; fill-rule:evenodd; clip-rule:evenodd" xmlns:xlink="http://www.w3.org/1999/xlink">
<g><path style="opacity:0.995" fill="#fe7b4a" d="M 470.5,-0.5 C 481.167,-0.5 491.833,-0.5 502.5,-0.5C 504.5,1.16667 506.5,2.83333 508.5,4.5C 507.448,4.35055 506.448,4.51722 505.5,5C 477.632,32.7013 449.965,60.5347 422.5,88.5C 402.167,68.5 381.833,48.5 361.5,28.5C 396.054,12.1229 432.387,2.45625 470.5,-0.5 Z"/></g>
<g><path style="opacity:1" fill="#fe445b" d="M 508.5,4.5 C 509.512,5.87165 510.512,7.20498 511.5,8.5C 511.5,19.1667 511.5,29.8333 511.5,40.5C 508.554,78.6154 498.888,114.949 482.5,149.5C 462.833,129.167 442.833,109.167 422.5,89.5C 422.5,89.1667 422.5,88.8333 422.5,88.5C 449.965,60.5347 477.632,32.7013 505.5,5C 506.448,4.51722 507.448,4.35055 508.5,4.5 Z"/></g>
<g><path style="opacity:0.998" fill="#ecf4fe" d="M 361.5,28.5 C 381.833,48.5 402.167,68.5 422.5,88.5C 422.5,88.8333 422.5,89.1667 422.5,89.5C 421.761,89.369 421.094,89.5357 420.5,90C 399.965,110.702 379.299,131.202 358.5,151.5C 341.873,138.177 323.873,136.011 304.5,145C 282.977,159.581 276.81,179.081 286,203.5C 288.357,208.232 291.19,212.565 294.5,216.5C 273.701,236.798 253.035,257.298 232.5,278C 231.906,278.464 231.239,278.631 230.5,278.5C 212.833,261.5 195.5,244.167 178.5,226.5C 185.741,208.019 194.574,190.352 205,173.5C 215.273,157.935 225.773,142.602 236.5,127.5C 262.339,95.1531 292.672,67.9864 327.5,46C 338.417,39.3748 349.75,33.5415 361.5,28.5 Z"/></g>
<g><path style="opacity:1" fill="#d4e7fd" d="M 422.5,89.5 C 442.833,109.167 462.833,129.167 482.5,149.5C 462.865,191.889 435.531,228.723 400.5,260C 394.762,264.851 389.095,269.685 383.5,274.5C 357.188,294.919 328.854,312.419 298.5,327C 293.924,329.124 289.257,330.957 284.5,332.5C 266.833,315.167 249.167,297.833 231.5,280.5C 231.167,279.833 230.833,279.167 230.5,278.5C 231.239,278.631 231.906,278.464 232.5,278C 253.035,257.298 273.701,236.798 294.5,216.5C 294.833,216.5 295.167,216.5 295.5,216.5C 314.16,232.451 333.826,233.617 354.5,220C 372.714,203.381 376.547,183.881 366,161.5C 364.054,158.58 361.887,155.913 359.5,153.5C 359.167,152.833 358.833,152.167 358.5,151.5C 379.299,131.202 399.965,110.702 420.5,90C 421.094,89.5357 421.761,89.369 422.5,89.5 Z"/></g>
<g><path style="opacity:0.992" fill="#fe7b4a" d="M 236.5,127.5 C 225.773,142.602 215.273,157.935 205,173.5C 194.574,190.352 185.741,208.019 178.5,226.5C 177.833,226.5 177.167,226.5 176.5,226.5C 159.202,208.701 141.702,191.035 124,173.5C 120.265,167.882 119.598,161.882 122,155.5C 139.16,136.334 160.66,125.167 186.5,122C 203.61,120.13 220.277,121.963 236.5,127.5 Z"/></g>
<g><path style="opacity:1" fill="#6aa9ff" d="M 358.5,151.5 C 358.833,152.167 359.167,152.833 359.5,153.5C 337.55,173.782 316.217,194.782 295.5,216.5C 295.167,216.5 294.833,216.5 294.5,216.5C 291.19,212.565 288.357,208.232 286,203.5C 276.81,179.081 282.977,159.581 304.5,145C 323.873,136.011 341.873,138.177 358.5,151.5 Z"/></g>
<g><path style="opacity:1" fill="#4895fe" d="M 359.5,153.5 C 361.887,155.913 364.054,158.58 366,161.5C 376.547,183.881 372.714,203.381 354.5,220C 333.826,233.617 314.16,232.451 295.5,216.5C 316.217,194.782 337.55,173.782 359.5,153.5 Z"/></g>
<g><path style="opacity:0.991" fill="#47558c" d="M 176.5,226.5 C 177.167,226.5 177.833,226.5 178.5,226.5C 195.5,244.167 212.833,261.5 230.5,278.5C 230.833,279.167 231.167,279.833 231.5,280.5C 216.781,294.218 202.781,308.551 189.5,323.5C 174.535,309.035 159.701,294.369 145,279.5C 140.133,271.913 140.466,264.58 146,257.5C 156.369,247.298 166.535,236.965 176.5,226.5 Z"/></g>
<g><path style="opacity:1" fill="#fe445a" d="M 383.5,274.5 C 395.333,311.161 390.167,345.161 368,376.5C 364.5,381.333 360.333,385.5 355.5,389C 349.118,391.402 343.118,390.735 337.5,387C 319.965,369.298 302.299,351.798 284.5,334.5C 284.5,333.833 284.5,333.167 284.5,332.5C 289.257,330.957 293.924,329.124 298.5,327C 328.854,312.419 357.188,294.919 383.5,274.5 Z"/></g>
<g><path style="opacity:1" fill="#29376d" d="M 231.5,280.5 C 249.167,297.833 266.833,315.167 284.5,332.5C 284.5,333.167 284.5,333.833 284.5,334.5C 274.035,344.465 263.702,354.631 253.5,365C 246.42,370.534 239.087,370.867 231.5,366C 217.298,351.965 203.298,337.799 189.5,323.5C 202.781,308.551 216.781,294.218 231.5,280.5 Z"/></g>
<g><path style="opacity:0.991" fill="#fedd45" d="M 168.5,343.5 C 113.166,397.834 58.499,452.834 4.5,508.5C 2.83333,506.5 1.16667,504.5 -0.5,502.5C -0.5,498.167 -0.5,493.833 -0.5,489.5C 9.55126,454.184 21.7179,419.517 36,385.5C 41.0781,375.01 46.4114,364.677 52,354.5C 71.9602,326.731 98.7935,316.231 132.5,323C 146.507,326.498 158.507,333.331 168.5,343.5 Z"/></g>
<g><path style="opacity:1" fill="#fabe2c" d="M 168.5,343.5 C 189.784,367.085 195.284,394.085 185,424.5C 179.155,439.013 169.655,450.513 156.5,459C 132.839,472.162 108.172,483.162 82.5,492C 61.9293,499.248 41.2626,505.748 20.5,511.5C 16.5,511.5 12.5,511.5 8.5,511.5C 7.20498,510.512 5.87165,509.512 4.5,508.5C 58.499,452.834 113.166,397.834 168.5,343.5 Z"/></g>
</svg>
