<?xml version="1.0" encoding="UTF-8"?>
<!DOCTYPE svg PUBLIC "-//W3C//DTD SVG 1.1//EN" "http://www.w3.org/Graphics/SVG/1.1/DTD/svg11.dtd">
<svg xmlns="http://www.w3.org/2000/svg" version="1.1" width="512px" height="512px" style="shape-rendering:geometricPrecision; text-rendering:geometricPrecision; image-rendering:optimizeQuality; fill-rule:evenodd; clip-rule:evenodd" xmlns:xlink="http://www.w3.org/1999/xlink">
<g><path style="opacity:0.995" fill="#fc5b3f" d="M 464.5,-0.5 C 479.833,-0.5 495.167,-0.5 510.5,-0.5C 479.277,31.2238 447.777,62.8905 416,94.5C 414.906,96.0779 414.072,97.7446 413.5,99.5C 412.833,99.1667 412.167,98.8333 411.5,98.5C 388.167,74.8333 364.833,51.1667 341.5,27.5C 381.251,12.2854 422.251,2.95207 464.5,-0.5 Z"/></g>
<g><path style="opacity:0.992" fill="#fc3736" d="M 510.5,-0.5 C 510.833,-0.5 511.167,-0.5 511.5,-0.5C 511.5,15.1667 511.5,30.8333 511.5,46.5C 508.05,88.7372 498.717,129.737 483.5,169.5C 459.833,146.5 436.5,123.167 413.5,99.5C 414.072,97.7446 414.906,96.0779 416,94.5C 447.777,62.8905 479.277,31.2238 510.5,-0.5 Z"/></g>
<g><path style="opacity:0.998" fill="#f6efea" d="M 341.5,27.5 C 364.833,51.1667 388.167,74.8333 411.5,98.5C 404.76,106.745 397.427,114.578 389.5,122C 388.906,122.464 388.239,122.631 387.5,122.5C 363.904,104.113 340.238,103.946 316.5,122C 300.054,138.96 296.221,158.46 305,180.5C 307.606,185.595 310.772,190.262 314.5,194.5C 314.649,195.552 314.483,196.552 314,197.5C 304.913,207.091 295.413,216.091 285.5,224.5C 272.315,214.013 258.982,213.847 245.5,224C 234.632,235.035 223.632,245.869 212.5,256.5C 188.5,232.833 164.5,209.167 140.5,185.5C 154.614,164.709 170.614,145.376 188.5,127.5C 232.012,83.0383 283.012,49.705 341.5,27.5 Z"/></g>
<g><path style="opacity:0.998" fill="#eee1dc" d="M 411.5,98.5 C 412.167,98.8333 412.833,99.1667 413.5,99.5C 436.5,123.167 459.833,146.5 483.5,169.5C 460.91,227.723 427.576,278.723 383.5,322.5C 365.624,340.386 346.291,356.386 325.5,370.5C 301.833,346.5 278.167,322.5 254.5,298.5C 265.131,287.368 275.965,276.368 287,265.5C 296.126,253.645 296.793,241.311 289,228.5C 287.961,227.29 286.794,226.29 285.5,225.5C 285.5,225.167 285.5,224.833 285.5,224.5C 295.413,216.091 304.913,207.091 314,197.5C 314.483,196.552 314.649,195.552 314.5,194.5C 315.167,195.167 315.833,195.833 316.5,196.5C 336.983,213.499 358.65,214.999 381.5,201C 403.59,181.734 408.09,158.901 395,132.5C 392.958,129.06 390.458,126.06 387.5,123.5C 387.5,123.167 387.5,122.833 387.5,122.5C 388.239,122.631 388.906,122.464 389.5,122C 397.427,114.578 404.76,106.745 411.5,98.5 Z"/></g>
<g><path style="opacity:1" fill="#d2d2d7" d="M 387.5,122.5 C 387.5,122.833 387.5,123.167 387.5,123.5C 380.869,129.631 374.369,135.964 368,142.5C 367.517,143.448 367.351,144.448 367.5,145.5C 355.753,135.631 344.586,136.298 334,147.5C 328.797,157.097 329.63,166.097 336.5,174.5C 329.869,180.631 323.369,186.964 317,193.5C 316.517,194.448 316.351,195.448 316.5,196.5C 315.833,195.833 315.167,195.167 314.5,194.5C 310.772,190.262 307.606,185.595 305,180.5C 296.221,158.46 300.054,138.96 316.5,122C 340.238,103.946 363.904,104.113 387.5,122.5 Z"/></g>
<g><path style="opacity:0.994" fill="#499af1" d="M 188.5,127.5 C 170.614,145.376 154.614,164.709 140.5,185.5C 120.813,211.194 101.48,237.194 82.5,263.5C 78.7024,260.204 75.0357,256.704 71.5,253C 54.8333,252.667 38.1667,252.333 21.5,252C 14.2982,244.631 6.9649,237.464 -0.5,230.5C -0.5,229.5 -0.5,228.5 -0.5,227.5C 26.2987,201.202 52.9653,174.702 79.5,148C 112,121.377 148.333,114.543 188.5,127.5 Z"/></g>
<g><path style="opacity:1" fill="#b9b9be" d="M 387.5,123.5 C 390.458,126.06 392.958,129.06 395,132.5C 408.09,158.901 403.59,181.734 381.5,201C 358.65,214.999 336.983,213.499 316.5,196.5C 316.351,195.448 316.517,194.448 317,193.5C 323.369,186.964 329.869,180.631 336.5,174.5C 348.161,183.15 358.994,182.15 369,171.5C 374.122,162.42 373.622,153.753 367.5,145.5C 367.351,144.448 367.517,143.448 368,142.5C 374.369,135.964 380.869,129.631 387.5,123.5 Z"/></g>
<g><path style="opacity:1" fill="#f9f3ed" d="M 367.5,145.5 C 373.622,153.753 374.122,162.42 369,171.5C 358.994,182.15 348.161,183.15 336.5,174.5C 329.63,166.097 328.797,157.097 334,147.5C 344.586,136.298 355.753,135.631 367.5,145.5 Z"/></g>
<g><path style="opacity:1" fill="#cfe7fd" d="M 140.5,185.5 C 164.5,209.167 188.5,232.833 212.5,256.5C 190.167,279.5 167.5,302.167 144.5,324.5C 134.833,315.167 125.167,305.833 115.5,296.5C 108.778,288.776 101.445,281.776 93.5,275.5C 89.8333,271.5 86.1667,267.5 82.5,263.5C 101.48,237.194 120.813,211.194 140.5,185.5 Z"/></g>
<g><path style="opacity:1" fill="#4a9af1" d="M 285.5,224.5 C 285.5,224.833 285.5,225.167 285.5,225.5C 237.5,274.167 189.167,322.5 140.5,370.5C 133.368,363.869 126.368,357.036 119.5,350C 128.036,341.632 136.369,333.132 144.5,324.5C 167.5,302.167 190.167,279.5 212.5,256.5C 223.632,245.869 234.632,235.035 245.5,224C 258.982,213.847 272.315,214.013 285.5,224.5 Z"/></g>
<g><path style="opacity:1" fill="#4e88d9" d="M 285.5,225.5 C 286.794,226.29 287.961,227.29 289,228.5C 296.793,241.311 296.126,253.645 287,265.5C 275.965,276.368 265.131,287.368 254.5,298.5C 231.5,320.833 208.833,343.5 186.5,366.5C 177.868,374.631 169.368,382.964 161,391.5C 154.298,384.631 147.465,377.964 140.5,371.5C 140.5,371.167 140.5,370.833 140.5,370.5C 189.167,322.5 237.5,274.167 285.5,225.5 Z"/></g>
<g><path style="opacity:0.99" fill="#fc5b3e" d="M 93.5,275.5 C 101.445,281.776 108.778,288.776 115.5,296.5C 101.653,307.52 90.4863,320.853 82,336.5C 61.573,376.796 49.4063,419.463 45.5,464.5C 45.8417,465.338 46.5084,465.672 47.5,465.5C 45.9812,466.41 44.3146,467.243 42.5,468C 32.2424,477.754 22.5758,487.92 13.5,498.5C 13.6481,441.936 25.1481,387.602 48,335.5C 55.7541,319.763 65.0874,305.096 76,291.5C 81.404,285.591 87.2374,280.258 93.5,275.5 Z"/></g>
<g><path style="opacity:1" fill="#fcca03" d="M 115.5,296.5 C 125.167,305.833 134.833,315.167 144.5,324.5C 136.369,333.132 128.036,341.632 119.5,350C 126.368,357.036 133.368,363.869 140.5,370.5C 140.5,370.833 140.5,371.167 140.5,371.5C 139.069,372.082 137.736,372.915 136.5,374C 106.299,404.368 75.9653,434.535 45.5,464.5C 49.4063,419.463 61.573,376.796 82,336.5C 90.4863,320.853 101.653,307.52 115.5,296.5 Z"/></g>
<g><path style="opacity:1" fill="#bedefd" d="M 254.5,298.5 C 278.167,322.5 301.833,346.5 325.5,370.5C 299.806,390.187 273.806,409.52 247.5,428.5C 243.5,425.167 239.833,421.5 236.5,417.5C 229.5,409.833 222.167,402.5 214.5,395.5C 205.167,385.833 195.833,376.167 186.5,366.5C 208.833,343.5 231.5,320.833 254.5,298.5 Z"/></g>
<g><path style="opacity:0.991" fill="#4d88da" d="M 383.5,322.5 C 396.236,362.647 389.403,398.98 363,431.5C 336.298,458.035 309.798,484.701 283.5,511.5C 282.5,511.5 281.5,511.5 280.5,511.5C 273.536,504.035 266.369,496.702 259,489.5C 258.667,472.833 258.333,456.167 258,439.5C 254.296,435.964 250.796,432.298 247.5,428.5C 273.806,409.52 299.806,390.187 325.5,370.5C 346.291,356.386 365.624,340.386 383.5,322.5 Z"/></g>
<g><path style="opacity:1" fill="#fcad02" d="M 186.5,366.5 C 195.833,376.167 205.167,385.833 214.5,395.5C 197.337,415.455 176.337,430.288 151.5,440C 118.013,453.33 83.346,461.83 47.5,465.5C 46.5084,465.672 45.8417,465.338 45.5,464.5C 75.9653,434.535 106.299,404.368 136.5,374C 137.736,372.915 139.069,372.082 140.5,371.5C 147.465,377.964 154.298,384.631 161,391.5C 169.368,382.964 177.868,374.631 186.5,366.5 Z"/></g>
<g><path style="opacity:0.984" fill="#fc3635" d="M 214.5,395.5 C 222.167,402.5 229.5,409.833 236.5,417.5C 213.81,442.366 186.477,460.533 154.5,472C 108.926,488.374 61.9262,497.207 13.5,498.5C 22.5758,487.92 32.2424,477.754 42.5,468C 44.3146,467.243 45.9812,466.41 47.5,465.5C 83.346,461.83 118.013,453.33 151.5,440C 176.337,430.288 197.337,415.455 214.5,395.5 Z"/></g>
</svg>
