<?xml version="1.0" encoding="UTF-8"?>
<!DOCTYPE svg PUBLIC "-//W3C//DTD SVG 1.1//EN" "http://www.w3.org/Graphics/SVG/1.1/DTD/svg11.dtd">
<svg xmlns="http://www.w3.org/2000/svg" version="1.1" width="512px" height="512px" style="shape-rendering:geometricPrecision; text-rendering:geometricPrecision; image-rendering:optimizeQuality; fill-rule:evenodd; clip-rule:evenodd" xmlns:xlink="http://www.w3.org/1999/xlink">
<g><path style="opacity:0.977" fill="#c70a4f" d="M 111.5,61.5 C 106.122,64.0107 100.789,64.0107 95.5,61.5C 91.8467,60.0106 89.3467,57.3439 88,53.5C 86.6328,34.2062 95.1328,27.7062 113.5,34C 120.069,40.9446 121.236,48.7779 117,57.5C 115.549,59.4641 113.716,60.7974 111.5,61.5 Z"/></g>
<g><path style="opacity:1" fill="#dc9501" d="M 95.5,61.5 C 100.789,64.0107 106.122,64.0107 111.5,61.5C 111.5,62.1667 111.5,62.8333 111.5,63.5C 111.5,65.5 111.5,67.5 111.5,69.5C 106.179,72.0746 100.845,72.0746 95.5,69.5C 95.5,66.8333 95.5,64.1667 95.5,61.5 Z"/></g>
<g><path style="opacity:1" fill="#0082aa" d="M 111.5,63.5 C 114.167,63.5 116.833,63.5 119.5,63.5C 119.5,106.167 119.5,148.833 119.5,191.5C 118.833,191.5 118.167,191.5 117.5,191.5C 115.5,191.5 113.5,191.5 111.5,191.5C 111.5,150.833 111.5,110.167 111.5,69.5C 111.5,67.5 111.5,65.5 111.5,63.5 Z"/></g>
<g><path style="opacity:1" fill="#009fc7" d="M 119.5,63.5 C 214.834,63.3333 310.167,63.5 405.5,64C 410,65.8333 413.167,69 415,73.5C 415.667,109.5 415.667,145.5 415,181.5C 413.167,186 410,189.167 405.5,191C 310.167,191.5 214.834,191.667 119.5,191.5C 119.5,148.833 119.5,106.167 119.5,63.5 Z"/></g>
<g><path style="opacity:1" fill="#f9b300" d="M 95.5,69.5 C 100.845,72.0746 106.179,72.0746 111.5,69.5C 111.5,110.167 111.5,150.833 111.5,191.5C 106.167,191.5 100.833,191.5 95.5,191.5C 95.5,150.833 95.5,110.167 95.5,69.5 Z"/></g>
<g><path style="opacity:1" fill="#095078" d="M 152.5,87.5 C 167.905,87.0478 183.238,87.5478 198.5,89C 202.388,91.2215 205.221,94.3882 207,98.5C 207.861,104.585 207.527,110.585 206,116.5C 202.498,119.601 198.665,120.101 194.5,118C 193.107,116.829 192.273,115.329 192,113.5C 191.502,110.183 191.335,106.85 191.5,103.5C 180.167,103.5 168.833,103.5 157.5,103.5C 157.5,119.5 157.5,135.5 157.5,151.5C 168.833,151.5 180.167,151.5 191.5,151.5C 191.5,148.833 191.5,146.167 191.5,143.5C 186.372,143.888 181.372,143.388 176.5,142C 172.5,137.667 172.5,133.333 176.5,129C 184.73,127.396 193.063,127.063 201.5,128C 204.232,128.398 206.065,129.898 207,132.5C 207.667,140.167 207.667,147.833 207,155.5C 205.65,160.185 202.817,163.685 198.5,166C 183.235,167.619 167.901,167.952 152.5,167C 147.243,164.744 143.743,160.91 142,155.5C 141.333,136.5 141.333,117.5 142,98.5C 144.357,93.6455 147.857,89.9788 152.5,87.5 Z"/></g>
<g><path style="opacity:1" fill="#095078" d="M 234.5,87.5 C 248.171,87.3334 261.837,87.5001 275.5,88C 280.91,89.7425 284.744,93.2425 287,98.5C 287.667,117.5 287.667,136.5 287,155.5C 285.65,160.185 282.817,163.685 278.5,166C 263.902,167.616 249.235,167.949 234.5,167C 230.388,165.221 227.222,162.388 225,158.5C 223.37,138.565 223.036,118.565 224,98.5C 226.357,93.6455 229.857,89.9788 234.5,87.5 Z"/></g>
<g><path style="opacity:1" fill="#095078" d="M 308.5,87.5 C 313.28,86.6409 316.78,88.3075 319,92.5C 319.667,107.5 319.667,122.5 319,137.5C 318.018,141.624 315.352,143.624 311,143.5C 307.112,143.277 304.779,141.277 304,137.5C 303.333,122.5 303.333,107.5 304,92.5C 305.025,90.313 306.525,88.6464 308.5,87.5 Z"/></g>
<g><path style="opacity:1" fill="#095078" d="M 340.5,87.5 C 345.28,86.6409 348.78,88.3075 351,92.5C 351.667,107.5 351.667,122.5 351,137.5C 350.018,141.624 347.352,143.624 343,143.5C 339.112,143.277 336.779,141.277 336,137.5C 335.333,122.5 335.333,107.5 336,92.5C 337.025,90.313 338.525,88.6464 340.5,87.5 Z"/></g>
<g><path style="opacity:1" fill="#095078" d="M 372.5,87.5 C 377.28,86.6409 380.78,88.3075 383,92.5C 383.667,107.5 383.667,122.5 383,137.5C 382.018,141.624 379.352,143.624 375,143.5C 371.112,143.277 368.779,141.277 368,137.5C 367.333,122.5 367.333,107.5 368,92.5C 369.025,90.313 370.525,88.6464 372.5,87.5 Z"/></g>
<g><path style="opacity:1" fill="#00a0c8" d="M 239.5,103.5 C 250.167,103.5 260.833,103.5 271.5,103.5C 271.5,119.5 271.5,135.5 271.5,151.5C 260.833,151.5 250.167,151.5 239.5,151.5C 239.5,135.5 239.5,119.5 239.5,103.5 Z"/></g>
<g><path style="opacity:1" fill="#09527a" d="M 308.5,151.5 C 314.629,150.555 318.296,153.055 319.5,159C 319.333,164.5 316.5,167.333 311,167.5C 304.894,166.296 302.561,162.629 304,156.5C 305.025,154.313 306.525,152.646 308.5,151.5 Z"/></g>
<g><path style="opacity:1" fill="#09527a" d="M 340.5,151.5 C 346.629,150.555 350.296,153.055 351.5,159C 351.333,164.5 348.5,167.333 343,167.5C 336.894,166.296 334.561,162.629 336,156.5C 337.025,154.313 338.525,152.646 340.5,151.5 Z"/></g>
<g><path style="opacity:1" fill="#09527a" d="M 372.5,151.5 C 378.629,150.555 382.296,153.055 383.5,159C 383.333,164.5 380.5,167.333 375,167.5C 368.894,166.296 366.561,162.629 368,156.5C 369.025,154.313 370.525,152.646 372.5,151.5 Z"/></g>
<g><path style="opacity:0.971" fill="#003159" d="M 79.5,191.5 C 79.5,196.833 79.5,202.167 79.5,207.5C 75.4862,207.666 71.4862,207.499 67.5,207C 64.484,205.471 63.1506,202.971 63.5,199.5C 63.4035,197.074 64.0702,194.907 65.5,193C 70.036,191.621 74.7027,191.121 79.5,191.5 Z"/></g>
<g><path style="opacity:0.997" fill="#c70950" d="M 79.5,191.5 C 84.8333,191.5 90.1667,191.5 95.5,191.5C 100.833,191.5 106.167,191.5 111.5,191.5C 113.5,191.5 115.5,191.5 117.5,191.5C 121.811,193.647 124.978,196.98 127,201.5C 127.5,211.494 127.666,221.494 127.5,231.5C 111.5,231.5 95.5,231.5 79.5,231.5C 79.5,223.5 79.5,215.5 79.5,207.5C 79.5,202.167 79.5,196.833 79.5,191.5 Z"/></g>
<g><path style="opacity:0.977" fill="#fab400" d="M 307.5,207.5 C 316.276,207.059 324.942,207.559 333.5,209C 335.1,214.007 336.267,219.174 337,224.5C 341.222,228.08 345.889,230.747 351,232.5C 354.233,232.3 357.067,231.133 359.5,229C 362.5,228.333 365.5,228.333 368.5,229C 372.959,234.747 376.793,240.914 380,247.5C 380.755,250.303 380.422,252.97 379,255.5C 375.758,258.205 372.258,260.539 368.5,262.5C 367.167,268.5 367.167,274.5 368.5,280.5C 371.005,282.253 373.671,283.753 376.5,285C 381.567,290.214 381.734,295.714 377,301.5C 374.785,306.1 371.952,310.266 368.5,314C 365.5,314.667 362.5,314.667 359.5,314C 356.041,310.886 352.041,309.886 347.5,311C 343.722,313.112 340.222,315.612 337,318.5C 335.97,322.773 335.303,327.106 335,331.5C 334.5,333.333 333.333,334.5 331.5,335C 322.73,335.94 314.064,335.607 305.5,334C 303.9,328.993 302.733,323.826 302,318.5C 297.778,314.92 293.111,312.253 288,310.5C 284.767,310.7 281.933,311.867 279.5,314C 276.5,314.667 273.5,314.667 270.5,314C 266.041,308.253 262.207,302.086 259,295.5C 258.245,292.697 258.578,290.03 260,287.5C 263.242,284.795 266.742,282.461 270.5,280.5C 271.833,274.5 271.833,268.5 270.5,262.5C 267.995,260.747 265.329,259.247 262.5,258C 257.433,252.786 257.266,247.286 262,241.5C 264.215,236.9 267.048,232.734 270.5,229C 273.5,228.333 276.5,228.333 279.5,229C 282.959,232.114 286.959,233.114 291.5,232C 295.088,229.623 298.588,227.123 302,224.5C 303.03,220.227 303.697,215.894 304,211.5C 304.69,209.65 305.856,208.316 307.5,207.5 Z M 312.5,240.5 C 341.274,240.106 353.441,254.106 349,282.5C 340.619,299.604 327.119,305.771 308.5,301C 288.665,290.519 283.498,275.019 293,254.5C 298.012,247.639 304.512,242.972 312.5,240.5 Z"/></g>
<g><path style="opacity:1" fill="#9f0027" d="M 79.5,231.5 C 95.5,231.5 111.5,231.5 127.5,231.5C 127.5,234.167 127.5,236.833 127.5,239.5C 111.5,239.5 95.5,239.5 79.5,239.5C 79.5,236.833 79.5,234.167 79.5,231.5 Z"/></g>
<g><path style="opacity:0.998" fill="#0a5078" d="M 79.5,239.5 C 95.5,239.5 111.5,239.5 127.5,239.5C 153.833,234.5 164.5,245.167 159.5,271.5C 159.5,276.833 159.5,282.167 159.5,287.5C 159.5,290.833 159.5,294.167 159.5,297.5C 159.832,334.67 159.498,371.67 158.5,408.5C 157.417,398.669 153.417,390.336 146.5,383.5C 137.262,372.712 125.595,367.712 111.5,368.5C 104.345,367.671 97.0115,367.171 89.5,367C 82.5102,364.186 79.1769,359.019 79.5,351.5C 79.5,346.167 79.5,340.833 79.5,335.5C 79.5,303.5 79.5,271.5 79.5,239.5 Z"/></g>
<g><path style="opacity:1" fill="#0082aa" d="M 111.5,271.5 C 111.951,286.572 111.451,301.572 110,316.5C 103.814,321.164 98.9803,320.164 95.5,313.5C 95.3335,301.162 95.5001,288.829 96,276.5C 96.8333,274.333 98.3333,272.833 100.5,272C 104.152,271.501 107.818,271.335 111.5,271.5 Z"/></g>
<g><path style="opacity:1" fill="#009fc7" d="M 111.5,271.5 C 116.833,271.5 122.167,271.5 127.5,271.5C 127.049,286.572 127.549,301.572 129,316.5C 132.419,319.848 136.252,320.348 140.5,318C 141.781,316.591 142.781,315.091 143.5,313.5C 143.746,319.559 143.413,325.559 142.5,331.5C 141.547,333.61 139.881,334.777 137.5,335C 125.167,335.667 112.833,335.667 100.5,335C 98.6763,334.34 97.343,333.173 96.5,331.5C 95.5872,325.559 95.2539,319.559 95.5,313.5C 98.9803,320.164 103.814,321.164 110,316.5C 111.451,301.572 111.951,286.572 111.5,271.5 Z"/></g>
<g><path style="opacity:1" fill="#0082aa" d="M 127.5,271.5 C 131.182,271.335 134.848,271.501 138.5,272C 140.667,272.833 142.167,274.333 143,276.5C 143.5,288.829 143.667,301.162 143.5,313.5C 142.781,315.091 141.781,316.591 140.5,318C 136.252,320.348 132.419,319.848 129,316.5C 127.549,301.572 127.049,286.572 127.5,271.5 Z"/></g>
<g><path style="opacity:1" fill="#0082aa" d="M 159.5,271.5 C 162.167,271.5 164.833,271.5 167.5,271.5C 167.5,276.833 167.5,282.167 167.5,287.5C 164.833,287.5 162.167,287.5 159.5,287.5C 159.5,282.167 159.5,276.833 159.5,271.5 Z"/></g>
<g><path style="opacity:0.986" fill="#02a0c8" d="M 167.5,271.5 C 187.464,268.717 200.631,276.717 207,295.5C 207.5,303.493 207.666,311.493 207.5,319.5C 199.986,320.016 194.653,323.683 191.5,330.5C 191.666,320.161 191.5,309.828 191,299.5C 189.243,293.574 185.409,289.908 179.5,288.5C 176.375,287.521 173.042,287.187 169.5,287.5C 168.833,287.5 168.167,287.5 167.5,287.5C 167.5,282.167 167.5,276.833 167.5,271.5 Z"/></g>
<g><path style="opacity:1" fill="#d2aa82" d="M 169.5,287.5 C 173.042,287.187 176.375,287.521 179.5,288.5C 174.013,289.813 170.18,293.147 168,298.5C 167.5,337.499 167.333,376.499 167.5,415.5C 164.833,415.5 162.167,415.5 159.5,415.5C 159.007,413.194 158.674,410.861 158.5,408.5C 159.498,371.67 159.832,334.67 159.5,297.5C 161.833,293.167 165.167,289.833 169.5,287.5 Z"/></g>
<g><path style="opacity:0.999" fill="#efc79f" d="M 179.5,288.5 C 185.409,289.908 189.243,293.574 191,299.5C 191.5,309.828 191.666,320.161 191.5,330.5C 191.5,337.5 191.5,344.5 191.5,351.5C 194.167,351.5 196.833,351.5 199.5,351.5C 199.334,344.492 199.5,337.492 200,330.5C 202.357,325.645 205.857,321.979 210.5,319.5C 220.196,321.541 224.529,327.541 223.5,337.5C 223.5,342.167 223.5,346.833 223.5,351.5C 226.167,351.5 228.833,351.5 231.5,351.5C 229.278,340.62 232.944,332.62 242.5,327.5C 252.196,329.541 256.529,335.541 255.5,345.5C 255.5,347.5 255.5,349.5 255.5,351.5C 258.167,351.5 260.833,351.5 263.5,351.5C 264.016,343.986 267.683,338.653 274.5,335.5C 280.57,336.399 284.737,339.732 287,345.5C 287.667,376.167 287.667,406.833 287,437.5C 284.186,444.49 279.019,447.823 271.5,447.5C 271.5,458.167 271.5,468.833 271.5,479.5C 236.833,479.5 202.167,479.5 167.5,479.5C 167.5,468.833 167.5,458.167 167.5,447.5C 151.256,446.456 140.756,438.122 136,422.5C 135.5,409.504 135.333,396.504 135.5,383.5C 139.167,383.5 142.833,383.5 146.5,383.5C 153.417,390.336 157.417,398.669 158.5,408.5C 158.674,410.861 159.007,413.194 159.5,415.5C 162.167,415.5 164.833,415.5 167.5,415.5C 167.333,376.499 167.5,337.499 168,298.5C 170.18,293.147 174.013,289.813 179.5,288.5 Z"/></g>
<g><path style="opacity:1" fill="#d1aa82" d="M 207.5,319.5 C 208.5,319.5 209.5,319.5 210.5,319.5C 205.857,321.979 202.357,325.645 200,330.5C 199.5,337.492 199.334,344.492 199.5,351.5C 196.833,351.5 194.167,351.5 191.5,351.5C 191.5,344.5 191.5,337.5 191.5,330.5C 194.653,323.683 199.986,320.016 207.5,319.5 Z"/></g>
<g><path style="opacity:1" fill="#d3ab83" d="M 242.5,327.5 C 232.944,332.62 229.278,340.62 231.5,351.5C 228.833,351.5 226.167,351.5 223.5,351.5C 223.5,346.833 223.5,342.167 223.5,337.5C 227.376,329.727 233.709,326.393 242.5,327.5 Z"/></g>
<g><path style="opacity:1" fill="#00325a" d="M 96.5,331.5 C 97.343,333.173 98.6763,334.34 100.5,335C 112.833,335.667 125.167,335.667 137.5,335C 139.881,334.777 141.547,333.61 142.5,331.5C 143.954,335.262 143.288,338.762 140.5,342C 133.409,343.112 126.242,343.612 119,343.5C 112.065,343.63 105.232,343.13 98.5,342C 95.7125,338.762 95.0458,335.262 96.5,331.5 Z"/></g>
<g><path style="opacity:0.97" fill="#00a0c8" d="M 79.5,335.5 C 79.5,340.833 79.5,346.167 79.5,351.5C 75.4862,351.666 71.4862,351.499 67.5,351C 64.484,349.471 63.1506,346.971 63.5,343.5C 63.4035,341.074 64.0702,338.907 65.5,337C 70.036,335.621 74.7027,335.121 79.5,335.5 Z"/></g>
<g><path style="opacity:1" fill="#d3ab83" d="M 274.5,335.5 C 267.683,338.653 264.016,343.986 263.5,351.5C 260.833,351.5 258.167,351.5 255.5,351.5C 255.5,349.5 255.5,347.5 255.5,345.5C 259.376,337.727 265.709,334.393 274.5,335.5 Z"/></g>
<g><path style="opacity:0.975" fill="#00a0c8" d="M 347.5,335.5 C 356.276,335.059 364.942,335.559 373.5,337C 375.1,342.007 376.267,347.174 377,352.5C 381.222,356.08 385.889,358.747 391,360.5C 394.233,360.3 397.067,359.133 399.5,357C 402.5,356.333 405.5,356.333 408.5,357C 412.959,362.747 416.793,368.914 420,375.5C 420.755,378.303 420.422,380.97 419,383.5C 415.758,386.205 412.258,388.539 408.5,390.5C 407.167,396.5 407.167,402.5 408.5,408.5C 411.005,410.253 413.671,411.753 416.5,413C 421.567,418.214 421.734,423.714 417,429.5C 414.785,434.1 411.952,438.266 408.5,442C 405.5,442.667 402.5,442.667 399.5,442C 396.041,438.886 392.041,437.886 387.5,439C 383.722,441.112 380.222,443.612 377,446.5C 375.97,450.773 375.303,455.106 375,459.5C 374.5,461.333 373.333,462.5 371.5,463C 362.73,463.94 354.064,463.607 345.5,462C 343.9,456.993 342.733,451.826 342,446.5C 337.778,442.92 333.111,440.253 328,438.5C 324.767,438.7 321.933,439.867 319.5,442C 316.5,442.667 313.5,442.667 310.5,442C 306.041,436.253 302.207,430.086 299,423.5C 298.245,420.697 298.578,418.03 300,415.5C 303.242,412.795 306.742,410.461 310.5,408.5C 311.833,402.5 311.833,396.5 310.5,390.5C 307.995,388.747 305.329,387.247 302.5,386C 297.433,380.786 297.266,375.286 302,369.5C 304.215,364.9 307.048,360.734 310.5,357C 313.5,356.333 316.5,356.333 319.5,357C 322.959,360.114 326.959,361.114 331.5,360C 335.088,357.623 338.588,355.123 342,352.5C 343.03,348.227 343.697,343.894 344,339.5C 344.69,337.65 345.856,336.316 347.5,335.5 Z M 352.5,368.5 C 381.274,368.106 393.441,382.106 389,410.5C 380.619,427.604 367.119,433.771 348.5,429C 328.665,418.519 323.498,403.019 333,382.5C 338.012,375.639 344.512,370.972 352.5,368.5 Z"/></g>
<g><path style="opacity:0.976" fill="#c70a50" d="M 146.5,383.5 C 142.833,383.5 139.167,383.5 135.5,383.5C 132.833,383.5 130.167,383.5 127.5,383.5C 122.92,383.113 118.586,383.947 114.5,386C 112.622,389.674 111.122,393.507 110,397.5C 105.948,399.942 101.781,400.109 97.5,398C 93.1116,383.941 97.7783,374.108 111.5,368.5C 125.595,367.712 137.262,372.712 146.5,383.5 Z"/></g>
<g><path style="opacity:1" fill="#d2ab83" d="M 127.5,383.5 C 130.167,383.5 132.833,383.5 135.5,383.5C 135.333,396.504 135.5,409.504 136,422.5C 140.756,438.122 151.256,446.456 167.5,447.5C 167.5,458.167 167.5,468.833 167.5,479.5C 164.833,479.5 162.167,479.5 159.5,479.5C 159.5,468.833 159.5,458.167 159.5,447.5C 147.785,447.726 138.618,443.06 132,433.5C 130.275,430.326 128.942,426.993 128,423.5C 127.5,410.171 127.333,396.837 127.5,383.5 Z"/></g>
</svg>
