<?xml version="1.0" encoding="UTF-8"?>
<!DOCTYPE svg PUBLIC "-//W3C//DTD SVG 1.1//EN" "http://www.w3.org/Graphics/SVG/1.1/DTD/svg11.dtd">
<svg xmlns="http://www.w3.org/2000/svg" version="1.1" width="512px" height="512px" style="shape-rendering:geometricPrecision; text-rendering:geometricPrecision; image-rendering:optimizeQuality; fill-rule:evenodd; clip-rule:evenodd" xmlns:xlink="http://www.w3.org/1999/xlink">
<g><path style="opacity:0.994" fill="#72337f" d="M 424.5,-0.5 C 439.5,-0.5 454.5,-0.5 469.5,-0.5C 484.14,1.90373 495.64,9.23707 504,21.5C 507.417,27.604 509.917,33.9373 511.5,40.5C 511.5,55.8333 511.5,71.1667 511.5,86.5C 502.478,164.864 471.978,233.531 420,292.5C 400.636,313.531 380.302,333.531 359,352.5C 358.667,376.5 358.333,400.5 358,424.5C 355.135,435.396 348.969,443.896 339.5,450C 314.167,462.667 288.833,475.333 263.5,488C 249.806,493.234 240.306,489.067 235,475.5C 234.5,458.503 234.333,441.503 234.5,424.5C 216.681,429.157 200.015,426.657 184.5,417C 177.631,410.298 170.964,403.465 164.5,396.5C 253.698,380.429 320.532,333.096 365,254.5C 371.67,241.496 377.504,228.163 382.5,214.5C 410.526,200.605 423.693,177.938 422,146.5C 419.249,128.651 411.083,113.985 397.5,102.5C 394.915,69.902 387.248,38.5687 374.5,8.5C 391.035,4.18991 407.702,1.18991 424.5,-0.5 Z"/></g>
<g><path style="opacity:1" fill="#87438b" d="M 374.5,8.5 C 387.248,38.5687 394.915,69.902 397.5,102.5C 364.267,81.0029 333.767,84.3362 306,112.5C 287.387,139.009 286.72,166.009 304,193.5C 325.19,218.725 351.357,225.725 382.5,214.5C 377.504,228.163 371.67,241.496 365,254.5C 320.532,333.096 253.698,380.429 164.5,396.5C 139.84,372.673 115.673,348.34 92,323.5C 84.2342,308.573 82.4008,292.906 86.5,276.5C 69.4967,276.667 52.4967,276.5 35.5,276C 21.5085,270.908 17.3418,261.408 23,247.5C 35.6667,222.167 48.3333,196.833 61,171.5C 67.1038,162.031 75.6038,155.865 86.5,153C 110.5,152.667 134.5,152.333 158.5,152C 191.23,113.921 228.23,80.9207 269.5,53C 302.024,32.4329 337.024,17.5996 374.5,8.5 Z"/></g>
<g><path style="opacity:0.963" fill="#34334e" d="M 136.5,19.5 C 151.163,18.0049 159.496,24.5049 161.5,39C 160.991,43.5197 159.491,47.6864 157,51.5C 139.5,69 122,86.5 104.5,104C 89.721,111.41 79.221,107.577 73,92.5C 71.8956,86.7736 72.8956,81.4402 76,76.5C 93.8333,58.6667 111.667,40.8333 129.5,23C 131.925,21.7874 134.259,20.6207 136.5,19.5 Z"/></g>
<g><path style="opacity:0.973" fill="#33334e" d="M 40.5,32.5 C 60.6406,32.4658 68.1406,42.1325 63,61.5C 52.8333,73 42,83.8333 30.5,94C 17.6295,99.3787 8.12949,95.8787 2,83.5C 0.669445,76.7511 1.66944,70.4178 5,64.5C 14.5,55 24,45.5 33.5,36C 35.9252,34.7874 38.2585,33.6207 40.5,32.5 Z"/></g>
<g><path style="opacity:1" fill="#fefefe" d="M 397.5,102.5 C 411.083,113.985 419.249,128.651 422,146.5C 423.693,177.938 410.526,200.605 382.5,214.5C 351.357,225.725 325.19,218.725 304,193.5C 286.72,166.009 287.387,139.009 306,112.5C 333.767,84.3362 364.267,81.0029 397.5,102.5 Z"/></g>
<g><path style="opacity:0.966" fill="#33334e" d="M 465.5,348.5 C 485.518,348.556 493.018,358.223 488,377.5C 470.195,396.305 452.029,414.805 433.5,433C 418.721,440.41 408.221,436.577 402,421.5C 400.896,415.774 401.896,410.44 405,405.5C 422.833,387.667 440.667,369.833 458.5,352C 460.925,350.787 463.259,349.621 465.5,348.5 Z"/></g>
<g><path style="opacity:0.993" fill="#f9973d" d="M 13.5,511.5 C 9.83333,511.5 6.16667,511.5 2.5,511.5C 1.30766,509.887 0.307663,508.22 -0.5,506.5C -0.5,492.5 -0.5,478.5 -0.5,464.5C 1.09963,445.124 6.59963,426.791 16,409.5C 38.0404,378.861 66.5404,371.028 101.5,386C 128.349,403.526 138.182,428.026 131,459.5C 123.431,482.069 108.264,496.902 85.5,504C 75.527,508.079 65.1937,510.079 54.5,510C 49.4954,502.654 47.8287,494.654 49.5,486C 46.4416,479.085 42.2749,478.251 37,483.5C 34.3788,490.039 31.3788,496.373 28,502.5C 23.9584,506.93 19.125,509.93 13.5,511.5 Z"/></g>
<g><path style="opacity:0.966" fill="#33334f" d="M 456.5,443.5 C 474.367,446.212 480.534,456.212 475,473.5C 464.833,485 454,495.833 442.5,506C 427.376,511.687 417.542,506.854 413,491.5C 412.723,486.601 413.723,481.935 416,477.5C 425.833,467.667 435.667,457.833 445.5,448C 448.979,445.791 452.646,444.291 456.5,443.5 Z"/></g>
</svg>
