<?xml version="1.0" encoding="UTF-8"?>
<!DOCTYPE svg PUBLIC "-//W3C//DTD SVG 1.1//EN" "http://www.w3.org/Graphics/SVG/1.1/DTD/svg11.dtd">
<svg xmlns="http://www.w3.org/2000/svg" version="1.1" width="512px" height="512px" style="shape-rendering:geometricPrecision; text-rendering:geometricPrecision; image-rendering:optimizeQuality; fill-rule:evenodd; clip-rule:evenodd" xmlns:xlink="http://www.w3.org/1999/xlink">
<g><path style="opacity:0.904" fill="#000000" d="M 318.5,35.5 C 379.772,33.71 426.272,58.71 458,110.5C 483.766,161.743 482.099,212.076 453,261.5C 449,266.833 445,272.167 441,277.5C 410,308.5 379,339.5 348,370.5C 345.667,368.167 343.333,365.833 341,363.5C 340.333,362.5 340.333,361.5 341,360.5C 370.667,330.833 400.333,301.167 430,271.5C 467.663,224.848 473.996,174.182 449,119.5C 414.961,62.7372 365.128,39.9039 299.5,51C 274.915,56.9546 253.582,68.6213 235.5,86C 218.167,103.333 200.833,120.667 183.5,138C 179.876,136.569 176.876,134.069 174.5,130.5C 193.653,110.847 212.986,91.3472 232.5,72C 257.353,50.7736 286.02,38.6069 318.5,35.5 Z"/></g>
<g><path style="opacity:0.968" fill="#020303" d="M 212.5,348.5 C 210.565,347.19 208.565,345.857 206.5,344.5C 205.893,344.624 205.56,344.957 205.5,345.5C 199.205,353.272 191.538,355.272 182.5,351.5C 175.193,344.528 167.86,337.528 160.5,330.5C 156.394,320.897 158.394,312.897 166.5,306.5C 167.715,305.221 167.382,304.221 165.5,303.5C 165.34,301.847 164.674,300.514 163.5,299.5C 162.814,298.152 161.814,296.985 160.5,296C 139.494,294.06 118.494,292.06 97.5,290C 93.7905,288.905 92.2905,286.405 93,282.5C 109.138,265.362 125.638,248.528 142.5,232C 163.729,229.143 185.063,226.81 206.5,225C 207.624,224.751 208.624,224.251 209.5,223.5C 214.653,210.268 215.987,196.602 213.5,182.5C 216.406,132.439 240.739,97.2725 286.5,77C 337.107,59.6935 380.607,70.5268 417,109.5C 444.965,147.223 449.965,187.89 432,231.5C 410.438,273.958 375.772,295.958 328,297.5C 313.959,295.006 300.459,296.673 287.5,302.5C 284.97,324.497 282.47,346.497 280,368.5C 263.5,385 247,401.5 230.5,418C 227.001,419.12 224.167,418.287 222,415.5C 219.563,393.521 217.396,371.521 215.5,349.5C 214.209,349.737 213.209,349.404 212.5,348.5 Z"/></g>
<g><path style="opacity:1" fill="#b7ecf6" d="M 315.5,80.5 C 366.059,77.8492 402.225,99.1825 424,144.5C 437.131,182.587 431.464,217.587 407,249.5C 388.534,271.317 365.034,283.483 336.5,286C 324.162,286.158 311.829,286.158 299.5,286C 288.302,288.433 278.302,293.266 269.5,300.5C 264.848,296.349 260.348,292.015 256,287.5C 255.383,286.551 255.549,285.718 256.5,285C 275.007,272.58 293.341,259.913 311.5,247C 318.041,248.463 324.708,249.63 331.5,250.5C 331.467,247.164 332.134,243.997 333.5,241C 325.723,238.567 317.89,236.4 310,234.5C 308.126,227.212 306.46,219.879 305,212.5C 304.293,210.919 303.46,209.419 302.5,208C 293.933,205.955 285.433,203.788 277,201.5C 275.321,193.785 273.488,186.119 271.5,178.5C 268.167,179.167 264.833,179.833 261.5,180.5C 263.151,187.426 263.984,194.426 264,201.5C 251,219.833 238,238.167 225,256.5C 220.167,251.667 215.333,246.833 210.5,242C 224.884,224.105 229.884,203.772 225.5,181C 227.961,139.074 247.961,108.74 285.5,90C 295.267,85.6869 305.267,82.5203 315.5,80.5 Z"/></g>
<g><path style="opacity:0.882" fill="#000000" d="M 131.5,120.5 C 135.486,122.951 137.986,126.284 139,130.5C 106.833,162.667 74.6667,194.833 42.5,227C 39.224,225.763 36.3906,223.597 34,220.5C 33.3333,219.5 33.3333,218.5 34,217.5C 67.0338,185.633 99.5338,153.299 131.5,120.5 Z"/></g>
<g><path style="opacity:0.882" fill="#000000" d="M 155.5,148.5 C 158.631,151.129 161.631,153.962 164.5,157C 157.667,163.833 150.833,170.667 144,177.5C 141.167,174.667 138.333,171.833 135.5,169C 142.369,162.298 149.036,155.465 155.5,148.5 Z"/></g>
<g><path style="opacity:0.89" fill="#000000" d="M 118.5,185.5 C 121.959,186.436 124.793,188.436 127,191.5C 127.667,192.5 127.667,193.5 127,194.5C 113.333,208.167 99.6667,221.833 86,235.5C 83.6667,233.167 81.3333,230.833 79,228.5C 78.3333,227.5 78.3333,226.5 79,225.5C 92.3686,212.299 105.535,198.965 118.5,185.5 Z"/></g>
<g><path style="opacity:1" fill="#b5eaf4" d="M 269.5,211.5 C 277.768,213.489 286.101,215.156 294.5,216.5C 296.584,224.667 298.584,232.834 300.5,241C 282.754,253.623 264.921,266.123 247,278.5C 242.318,273.985 237.818,269.319 233.5,264.5C 245.551,246.798 257.551,229.131 269.5,211.5 Z"/></g>
<g><path style="opacity:1" fill="#1fa0a0" d="M 192.5,237.5 C 194.857,237.337 197.19,237.503 199.5,238C 195.667,241.833 191.833,245.667 188,249.5C 186.649,247.981 185.149,246.648 183.5,245.5C 180.833,247.833 178.167,250.167 175.5,252.5C 176.833,254.167 178.167,255.833 179.5,257.5C 177.778,260.42 175.445,262.253 172.5,263C 171.333,261.833 170.167,260.667 169,259.5C 166.5,262 164,264.5 161.5,267C 163.227,268.389 164.561,270.056 165.5,272C 163.142,275.872 161.809,280.039 161.5,284.5C 144.769,283.4 128.102,281.734 111.5,279.5C 123.652,266.847 135.986,254.347 148.5,242C 163.315,240.458 177.982,238.958 192.5,237.5 Z"/></g>
<g><path style="opacity:1" fill="#8b969d" d="M 202.5,249.5 C 222.132,268.632 241.632,287.965 261,307.5C 260.107,310.436 258.274,312.936 255.5,315C 254.833,315.667 254.167,315.667 253.5,315C 234.167,295.667 214.833,276.333 195.5,257C 198.039,254.63 200.372,252.13 202.5,249.5 Z"/></g>
<g><path style="opacity:1" fill="#8a939a" d="M 186.5,265.5 C 206.915,284.413 226.915,303.913 246.5,324C 244.333,326.167 242.167,328.333 240,330.5C 220.667,311.167 201.333,291.833 182,272.5C 181.333,271.833 181.333,271.167 182,270.5C 183.707,268.963 185.207,267.296 186.5,265.5 Z"/></g>
<g><path style="opacity:1" fill="#868f96" d="M 173.5,280.5 C 193.429,298.761 212.762,317.761 231.5,337.5C 225.245,340.462 219.245,339.962 213.5,336C 199.27,322.439 185.77,308.272 173,293.5C 172.232,289.08 172.398,284.747 173.5,280.5 Z"/></g>
<g><path style="opacity:0.337" fill="#7c8286" d="M 163.5,299.5 C 164.674,300.514 165.34,301.847 165.5,303.5C 163.896,302.713 163.229,301.38 163.5,299.5 Z"/></g>
<g><path style="opacity:0.345" fill="#70787e" d="M 165.5,303.5 C 167.382,304.221 167.715,305.221 166.5,306.5C 165.89,305.609 165.557,304.609 165.5,303.5 Z"/></g>
<g><path style="opacity:0.856" fill="#000000" d="M 445.5,307.5 C 448.731,309.22 451.564,311.553 454,314.5C 454.667,315.5 454.667,316.5 454,317.5C 415.667,355.833 377.333,394.167 339,432.5C 335.414,429.616 332.748,426.283 331,422.5C 369.368,384.299 407.535,345.965 445.5,307.5 Z"/></g>
<g><path style="opacity:1" fill="#1fa2a2" d="M 273.5,312.5 C 274.124,312.917 274.457,313.584 274.5,314.5C 272.798,330.854 270.965,347.188 269,363.5C 256.667,375.833 244.333,388.167 232,400.5C 230.303,383.837 228.97,367.17 228,350.5C 231.849,349.272 235.682,347.939 239.5,346.5C 241.743,347.648 243.743,348.815 245.5,350C 247.833,347.667 250.167,345.333 252.5,343C 250.362,341.578 249.195,339.745 249,337.5C 250.684,335.649 252.517,333.982 254.5,332.5C 255.646,333.145 256.646,333.978 257.5,335C 258.5,335.667 259.5,335.667 260.5,335C 263.274,332.936 265.107,330.436 266,327.5C 264.833,326.333 263.667,325.167 262.5,324C 266.37,320.298 270.037,316.464 273.5,312.5 Z"/></g>
<g><path style="opacity:1" fill="#a8b0b4" d="M 174.5,314.5 C 182.16,320.994 189.66,327.661 197,334.5C 196.204,340.585 192.704,342.752 186.5,341C 181.333,335.833 176.167,330.667 171,325.5C 169.699,323.635 169.365,321.635 170,319.5C 171.707,317.963 173.207,316.296 174.5,314.5 Z"/></g>
<g><path style="opacity:0.941" fill="#040101" d="M 79.5,435.5 C 79.1667,434.5 78.5,433.833 77.5,433.5C 76.7784,433.082 76.2784,432.416 76,431.5C 74.8961,413.087 75.5627,394.754 78,376.5C 80.0829,360.146 88.2496,347.979 102.5,340C 113.807,333.62 125.807,329.12 138.5,326.5C 139.938,326.719 141.271,327.219 142.5,328C 149.126,333.784 154.792,340.284 159.5,347.5C 158.926,349.059 158.26,350.559 157.5,352C 147.388,354.482 137.722,358.149 128.5,363C 122.074,367.009 118.574,372.843 118,380.5C 117.501,385.155 117.334,389.821 117.5,394.5C 125.813,395.248 133.813,394.082 141.5,391C 147.232,385.927 151.399,379.76 154,372.5C 155.834,366.494 157.668,360.494 159.5,354.5C 161.527,352.661 163.86,352.161 166.5,353C 172.302,357.8 177.802,362.967 183,368.5C 183.985,370.366 184.485,372.366 184.5,374.5C 181.613,390.27 175.447,404.604 166,417.5C 158.777,426.044 149.61,431.211 138.5,433C 118.943,436.476 99.2767,437.309 79.5,435.5 Z"/></g>
<g><path style="opacity:0.153" fill="#969da0" d="M 160.5,330.5 C 167.86,337.528 175.193,344.528 182.5,351.5C 181.448,351.649 180.448,351.483 179.5,351C 172.572,344.577 166.238,337.744 160.5,330.5 Z"/></g>
<g><path style="opacity:1" fill="#fa5c56" d="M 131.5,339.5 C 135.91,338.623 139.243,340.123 141.5,344C 130.133,347.765 120.299,353.931 112,362.5C 106.106,375.202 104.106,388.535 106,402.5C 106.5,404.333 107.667,405.5 109.5,406C 124.632,408.69 138.632,406.024 151.5,398C 158.501,389.834 163.835,380.668 167.5,370.5C 169.923,371.918 171.589,373.918 172.5,376.5C 168.796,392.426 161.129,405.926 149.5,417C 141.213,420.763 132.546,423.096 123.5,424C 111.171,424.5 98.8378,424.667 86.5,424.5C 85.5009,406.269 87.0009,388.269 91,370.5C 94.3006,361.531 100.134,354.697 108.5,350C 115.988,345.92 123.655,342.42 131.5,339.5 Z"/></g>
<g><path style="opacity:0.02" fill="#83898d" d="M 205.5,345.5 C 205.56,344.957 205.893,344.624 206.5,344.5C 208.565,345.857 210.565,347.19 212.5,348.5C 209.794,348.312 207.461,347.312 205.5,345.5 Z"/></g>
<g><path style="opacity:0.874" fill="#000000" d="M 323.5,377.5 C 327.472,378.949 330.806,381.449 333.5,385C 326.167,392.333 318.833,399.667 311.5,407C 310.5,407.667 309.5,407.667 308.5,407C 306.667,405.167 304.833,403.333 303,401.5C 302.333,400.5 302.333,399.5 303,398.5C 310.036,391.632 316.869,384.632 323.5,377.5 Z"/></g>
<g><path style="opacity:0.008" fill="#f76d68" d="M 77.5,433.5 C 78.5,433.833 79.1667,434.5 79.5,435.5C 78.1667,435.5 77.5,434.833 77.5,433.5 Z"/></g>
<g><path style="opacity:0.845" fill="#000000" d="M 316.5,436.5 C 320.302,437.779 323.469,440.112 326,443.5C 326.667,444.167 326.667,444.833 326,445.5C 314.667,456.833 303.333,468.167 292,479.5C 288.414,476.616 285.748,473.283 284,469.5C 295.035,458.632 305.869,447.632 316.5,436.5 Z"/></g>
</svg>
