<?xml version="1.0" encoding="UTF-8"?>
<!DOCTYPE svg PUBLIC "-//W3C//DTD SVG 1.1//EN" "http://www.w3.org/Graphics/SVG/1.1/DTD/svg11.dtd">
<svg xmlns="http://www.w3.org/2000/svg" version="1.1" width="512px" height="512px" style="shape-rendering:geometricPrecision; text-rendering:geometricPrecision; image-rendering:optimizeQuality; fill-rule:evenodd; clip-rule:evenodd" xmlns:xlink="http://www.w3.org/1999/xlink">
<g><path style="opacity:0.992" fill="#fe637b" d="M 430.5,-0.5 C 447.833,-0.5 465.167,-0.5 482.5,-0.5C 488.03,0.275448 493.697,1.10878 499.5,2C 502.106,2.79181 504.106,4.29181 505.5,6.5C 470.868,41.632 436.035,76.632 401,111.5C 400.536,112.094 400.369,112.761 400.5,113.5C 400.167,113.5 399.833,113.5 399.5,113.5C 378.852,92.2221 364.352,67.2221 356,38.5C 354.227,30.9203 353.06,23.2536 352.5,15.5C 378.014,7.19781 404.014,1.86448 430.5,-0.5 Z"/></g>
<g><path style="opacity:1" fill="#e63950" d="M 505.5,6.5 C 506.804,7.98693 507.97,9.6536 509,11.5C 509.809,17.3168 510.642,22.9834 511.5,28.5C 511.5,45.5 511.5,62.5 511.5,79.5C 509.006,106.303 503.672,132.636 495.5,158.5C 458.452,154.472 426.785,139.472 400.5,113.5C 400.369,112.761 400.536,112.094 401,111.5C 436.035,76.632 470.868,41.632 505.5,6.5 Z"/></g>
<g><path style="opacity:0.995" fill="#f9ebd7" d="M 352.5,15.5 C 353.06,23.2536 354.227,30.9203 356,38.5C 364.352,67.2221 378.852,92.2221 399.5,113.5C 392.5,120.167 385.5,126.833 378.5,133.5C 351.84,109.724 322.174,105.224 289.5,120C 254.06,142.646 242.56,174.146 255,214.5C 258.886,224.3 264.72,232.633 272.5,239.5C 272.5,239.833 272.5,240.167 272.5,240.5C 258.167,254.5 243.833,268.5 229.5,282.5C 224.045,278.037 217.712,276.371 210.5,277.5C 190.636,276.882 172.302,281.715 155.5,292C 146.937,300.395 138.604,308.895 130.5,317.5C 116.167,303.833 102.167,289.833 88.5,275.5C 104.06,245.369 121.394,216.369 140.5,188.5C 173.098,140.066 212.765,98.2326 259.5,63C 288.277,42.9442 319.277,27.1108 352.5,15.5 Z"/></g>
<g><path style="opacity:1" fill="#64e1db" d="M 378.5,133.5 C 378.5,133.833 378.5,134.167 378.5,134.5C 343.167,169.5 307.833,204.5 272.5,239.5C 264.72,232.633 258.886,224.3 255,214.5C 242.56,174.146 254.06,142.646 289.5,120C 322.174,105.224 351.84,109.724 378.5,133.5 Z"/></g>
<g><path style="opacity:1" fill="#f3d6af" d="M 399.5,113.5 C 399.833,113.5 400.167,113.5 400.5,113.5C 426.785,139.472 458.452,154.472 495.5,158.5C 478.854,205.814 454.021,248.147 421,285.5C 390.973,318.378 357.806,347.378 321.5,372.5C 293.831,391.341 265.164,408.675 235.5,424.5C 221.5,410.167 207.5,395.833 193.5,381.5C 201.852,372.648 210.352,363.981 219,355.5C 229.902,339.564 234.735,321.898 233.5,302.5C 233.333,297.833 233.167,293.167 233,288.5C 232.303,286.416 231.136,284.749 229.5,283.5C 229.5,283.167 229.5,282.833 229.5,282.5C 243.833,268.5 258.167,254.5 272.5,240.5C 296.255,261.616 323.255,266.783 353.5,256C 390.943,237.06 405.443,206.893 397,165.5C 393.364,153.545 387.197,143.212 378.5,134.5C 378.5,134.167 378.5,133.833 378.5,133.5C 385.5,126.833 392.5,120.167 399.5,113.5 Z"/></g>
<g><path style="opacity:1" fill="#05c8c8" d="M 378.5,134.5 C 387.197,143.212 393.364,153.545 397,165.5C 405.443,206.893 390.943,237.06 353.5,256C 323.255,266.783 296.255,261.616 272.5,240.5C 272.5,240.167 272.5,239.833 272.5,239.5C 307.833,204.5 343.167,169.5 378.5,134.5 Z"/></g>
<g><path style="opacity:0.979" fill="#fe637b" d="M 140.5,188.5 C 121.394,216.369 104.06,245.369 88.5,275.5C 86.4164,279.336 84.083,283.003 81.5,286.5C 72.214,285.387 62.8807,285.22 53.5,286C 40.38,287.457 27.38,289.624 14.5,292.5C 7.60547,291.894 2.60547,288.56 -0.5,282.5C -0.5,278.833 -0.5,275.167 -0.5,271.5C 15.9065,253.591 32.9065,236.091 50.5,219C 76.1891,196.381 106.189,186.214 140.5,188.5 Z"/></g>
<g><path style="opacity:0.983" fill="#7d8388" d="M 88.5,275.5 C 102.167,289.833 116.167,303.833 130.5,317.5C 116.387,332.604 103.054,348.271 90.5,364.5C 82.2023,355.702 73.7023,347.035 65,338.5C 61.1422,332.792 60.8088,326.792 64,320.5C 70.1016,309.297 75.9349,297.963 81.5,286.5C 84.083,283.003 86.4164,279.336 88.5,275.5 Z"/></g>
<g><path style="opacity:0.993" fill="#fe637b" d="M 229.5,282.5 C 229.5,282.833 229.5,283.167 229.5,283.5C 172.833,339.5 116.5,395.833 60.5,452.5C 56.4219,449.632 54.4219,445.632 54.5,440.5C 57.2334,423.367 63.0667,407.367 72,392.5C 77.9286,382.967 84.0952,373.633 90.5,364.5C 103.054,348.271 116.387,332.604 130.5,317.5C 138.604,308.895 146.937,300.395 155.5,292C 172.302,281.715 190.636,276.882 210.5,277.5C 217.712,276.371 224.045,278.037 229.5,282.5 Z"/></g>
<g><path style="opacity:1" fill="#e63950" d="M 229.5,283.5 C 231.136,284.749 232.303,286.416 233,288.5C 233.167,293.167 233.333,297.833 233.5,302.5C 234.735,321.898 229.902,339.564 219,355.5C 210.352,363.981 201.852,372.648 193.5,381.5C 178.142,394.529 162.808,407.529 147.5,420.5C 127.661,435.922 105.661,447.422 81.5,455C 75.4722,456.722 69.4722,456.722 63.5,455C 62.4293,454.148 61.4293,453.315 60.5,452.5C 116.5,395.833 172.833,339.5 229.5,283.5 Z"/></g>
<g><path style="opacity:0.979" fill="#e63950" d="M 321.5,372.5 C 323.77,406.858 313.604,436.858 291,462.5C 275.833,477.667 260.667,492.833 245.5,508C 243.568,509.459 241.568,510.625 239.5,511.5C 236.167,511.5 232.833,511.5 229.5,511.5C 222.495,508.338 219.162,502.838 219.5,495C 222.8,473.96 224.467,452.793 224.5,431.5C 227.997,428.917 231.664,426.584 235.5,424.5C 265.164,408.675 293.831,391.341 321.5,372.5 Z"/></g>
<g><path style="opacity:1" fill="#575f64" d="M 193.5,381.5 C 207.5,395.833 221.5,410.167 235.5,424.5C 231.664,426.584 227.997,428.917 224.5,431.5C 213.063,437.052 201.73,442.885 190.5,449C 185.016,451.148 179.683,450.815 174.5,448C 165.298,438.965 156.298,429.798 147.5,420.5C 162.808,407.529 178.142,394.529 193.5,381.5 Z"/></g>
</svg>
