<?xml version="1.0" encoding="UTF-8"?>
<!DOCTYPE svg PUBLIC "-//W3C//DTD SVG 1.1//EN" "http://www.w3.org/Graphics/SVG/1.1/DTD/svg11.dtd">
<svg xmlns="http://www.w3.org/2000/svg" version="1.1" width="512px" height="512px" style="shape-rendering:geometricPrecision; text-rendering:geometricPrecision; image-rendering:optimizeQuality; fill-rule:evenodd; clip-rule:evenodd" xmlns:xlink="http://www.w3.org/1999/xlink">
<g><path style="opacity:1" fill="#2dd0e1" d="M 379.5,50.5 C 372.735,69.4259 359.402,80.5925 339.5,84C 277.833,84.6667 216.167,84.6667 154.5,84C 133.98,79.6441 120.646,67.4774 114.5,47.5C 164.165,16.7557 218.165,4.92234 276.5,12C 313.972,16.8737 348.305,29.7071 379.5,50.5 Z"/></g>
<g><path style="opacity:0.997" fill="#2abbc7" d="M 114.5,47.5 C 120.646,67.4774 133.98,79.6441 154.5,84C 216.167,84.6667 277.833,84.6667 339.5,84C 359.402,80.5925 372.735,69.4259 379.5,50.5C 418.906,76.2388 448.24,110.572 467.5,153.5C 442.701,130.778 413.368,118.444 379.5,116.5C 275.001,115.334 170.334,115.167 65.5,116C 56.7088,116.866 48.0421,118.366 39.5,120.5C 58.9467,90.3856 83.9467,66.0523 114.5,47.5 Z"/></g>
<g><path style="opacity:0.997" fill="#df2580" d="M 379.5,116.5 C 320.166,116.333 260.832,116.5 201.5,117C 195.991,122.636 196.324,127.969 202.5,133C 202.272,133.399 201.938,133.565 201.5,133.5C 157.499,133.333 113.499,133.5 69.5,134C 54.1706,134.898 39.5039,138.398 25.5,144.5C 29.677,136.136 34.3436,128.136 39.5,120.5C 48.0421,118.366 56.7088,116.866 65.5,116C 170.334,115.167 275.001,115.334 379.5,116.5 Z"/></g>
<g><path style="opacity:0.995" fill="#fd0864" d="M 379.5,116.5 C 413.368,118.444 442.701,130.778 467.5,153.5C 491.937,176.705 506.604,205.039 511.5,238.5C 511.5,249.833 511.5,261.167 511.5,272.5C 506.604,305.961 491.937,334.295 467.5,357.5C 442.945,379.935 413.945,392.269 380.5,394.5C 321.166,394.667 261.832,394.5 202.5,394C 197.235,388.74 197.235,383.407 202.5,378C 202.272,377.601 201.938,377.435 201.5,377.5C 201.5,377.167 201.5,376.833 201.5,376.5C 262.834,376.667 324.168,376.5 385.5,376C 432.887,368.941 466.054,343.441 485,299.5C 489.82,285.9 492.653,271.9 493.5,257.5C 491.474,203.677 466.14,165.51 417.5,143C 401.402,136.817 384.736,133.984 367.5,134.5C 312.167,134.5 256.833,134.5 201.5,134.5C 201.5,134.167 201.5,133.833 201.5,133.5C 201.938,133.565 202.272,133.399 202.5,133C 196.324,127.969 195.991,122.636 201.5,117C 260.832,116.5 320.166,116.333 379.5,116.5 Z"/></g>
<g><path style="opacity:0.997" fill="#fc3480" d="M 201.5,133.5 C 201.5,133.833 201.5,134.167 201.5,134.5C 193.619,137.362 191.452,142.695 195,150.5C 196.73,152.402 198.563,154.069 200.5,155.5C 152.476,155.045 104.476,155.545 56.5,157C 40.2339,160.218 25.7339,167.051 13,177.5C 12.6012,177.272 12.4346,176.938 12.5,176.5C 15.7235,165.386 20.0568,154.719 25.5,144.5C 39.5039,138.398 54.1706,134.898 69.5,134C 113.499,133.5 157.499,133.333 201.5,133.5 Z"/></g>
<g><path style="opacity:1" fill="#fe636e" d="M 201.5,134.5 C 256.833,134.5 312.167,134.5 367.5,134.5C 361.494,138.438 359.994,143.771 363,150.5C 364.73,152.402 366.563,154.069 368.5,155.5C 313.5,155.5 258.5,155.5 203.5,155.5C 202.5,155.5 201.5,155.5 200.5,155.5C 198.563,154.069 196.73,152.402 195,150.5C 191.452,142.695 193.619,137.362 201.5,134.5 Z"/></g>
<g><path style="opacity:1" fill="#fe8e82" d="M 367.5,134.5 C 384.736,133.984 401.402,136.817 417.5,143C 466.14,165.51 491.474,203.677 493.5,257.5C 491.257,264.129 486.59,266.962 479.5,266C 476.667,264.5 474.5,262.333 473,259.5C 472.825,254.981 472.325,250.647 471.5,246.5C 466.382,206.409 445.382,178.242 408.5,162C 395.629,157.057 382.296,154.891 368.5,155.5C 366.563,154.069 364.73,152.402 363,150.5C 359.994,143.771 361.494,138.438 367.5,134.5 Z"/></g>
<g><path style="opacity:0.998" fill="#e41f7f" d="M 200.5,155.5 C 201.5,155.5 202.5,155.5 203.5,155.5C 193.421,167.537 191.921,180.537 199,194.5C 202.078,198.085 205.578,201.085 209.5,203.5C 197.773,234.51 185.94,265.51 174,296.5C 173.069,308.415 178.236,312.748 189.5,309.5C 187.735,314.042 186.235,318.709 185,323.5C 183.34,338.324 189.173,348.99 202.5,355.5C 201.833,355.5 201.167,355.5 200.5,355.5C 152.476,355.955 104.476,355.455 56.5,354C 39.9152,350.37 24.9152,343.536 11.5,333.5C 5.56867,315.125 1.56867,296.458 -0.5,277.5C -0.5,262.833 -0.5,248.167 -0.5,233.5C 1.46379,213.977 5.79712,194.977 12.5,176.5C 12.4346,176.938 12.6012,177.272 13,177.5C 25.7339,167.051 40.2339,160.218 56.5,157C 104.476,155.545 152.476,155.045 200.5,155.5 Z"/></g>
<g><path style="opacity:1" fill="#fe0664" d="M 203.5,155.5 C 258.5,155.5 313.5,155.5 368.5,155.5C 382.296,154.891 395.629,157.057 408.5,162C 445.382,178.242 466.382,206.409 471.5,246.5C 473.25,294.862 452.25,329.029 408.5,349C 400.684,351.763 392.684,353.763 384.5,355C 323.834,355.5 263.168,355.667 202.5,355.5C 189.173,348.99 183.34,338.324 185,323.5C 186.235,318.709 187.735,314.042 189.5,309.5C 190.794,308.71 191.961,307.71 193,306.5C 195.069,300.794 197.235,295.128 199.5,289.5C 213.822,288.334 228.155,288.167 242.5,289C 244.858,294.404 247.025,299.904 249,305.5C 255.294,313.379 261.628,313.379 268,305.5C 268.667,302.167 268.667,298.833 268,295.5C 256,264.167 244,232.833 232,201.5C 223.586,192.934 216.086,193.601 209.5,203.5C 205.578,201.085 202.078,198.085 199,194.5C 191.921,180.537 193.421,167.537 203.5,155.5 Z"/></g>
<g><path style="opacity:1" fill="#f8f1ef" d="M 60.5,195.5 C 76.2645,194.699 90.0978,199.366 102,209.5C 106.123,221.371 101.956,226.871 89.5,226C 79.7104,217.391 68.7104,215.058 56.5,219C 50.7411,223.407 50.0745,228.407 54.5,234C 68.3684,238.937 81.7018,244.937 94.5,252C 112.248,269.909 111.581,287.242 92.5,304C 68.1933,316.14 46.3599,312.64 27,293.5C 22.4497,284.271 25.1164,278.604 35,276.5C 37.2998,276.494 39.4664,276.994 41.5,278C 52.1556,289.44 64.8223,292.44 79.5,287C 86.9775,280.9 87.3108,274.566 80.5,268C 67.5,262.333 54.5,256.667 41.5,251C 29.4386,239.182 27.272,225.682 35,210.5C 41.7078,202.237 50.2078,197.237 60.5,195.5 Z"/></g>
<g><path style="opacity:1" fill="#f8f1f0" d="M 134.5,301.5 C 134.5,273.167 134.5,244.833 134.5,216.5C 128.5,216.5 122.5,216.5 116.5,216.5C 109.27,214.042 106.77,209.042 109,201.5C 110.663,199.083 112.829,197.25 115.5,196C 134.833,195.333 154.167,195.333 173.5,196C 182.937,200.955 183.937,207.289 176.5,215C 169.615,216.425 162.615,216.925 155.5,216.5C 155.667,245.502 155.5,274.502 155,303.5C 149.913,312.737 143.58,313.737 136,306.5C 134.991,304.975 134.491,303.308 134.5,301.5 Z"/></g>
<g><path style="opacity:1" fill="#f9f0ef" d="M 189.5,309.5 C 178.236,312.748 173.069,308.415 174,296.5C 185.94,265.51 197.773,234.51 209.5,203.5C 216.086,193.601 223.586,192.934 232,201.5C 244,232.833 256,264.167 268,295.5C 268.667,298.833 268.667,302.167 268,305.5C 261.628,313.379 255.294,313.379 249,305.5C 247.025,299.904 244.858,294.404 242.5,289C 228.155,288.167 213.822,288.334 199.5,289.5C 197.235,295.128 195.069,300.794 193,306.5C 191.961,307.71 190.794,308.71 189.5,309.5 Z"/></g>
<g><path style="opacity:1" fill="#f9f1f0" d="M 281.5,195.5 C 294.219,195.102 306.886,195.602 319.5,197C 333.862,201.362 342.696,210.862 346,225.5C 347.035,245.794 337.869,258.961 318.5,265C 326.648,274.783 335.148,284.283 344,293.5C 348.474,303.219 345.474,309.219 335,311.5C 333.373,311.375 331.873,310.875 330.5,310C 319,297.167 307.5,284.333 296,271.5C 295.667,281.833 295.333,292.167 295,302.5C 292.36,310.237 287.194,312.737 279.5,310C 278.333,308.833 277.167,307.667 276,306.5C 274.347,271.918 274.014,237.252 275,202.5C 276.694,199.642 278.861,197.309 281.5,195.5 Z"/></g>
<g><path style="opacity:1" fill="#f9f2f0" d="M 414.5,216.5 C 408.5,216.5 402.5,216.5 396.5,216.5C 396.5,244.833 396.5,273.167 396.5,301.5C 393.72,310.557 388.053,313.057 379.5,309C 377.959,307.421 376.792,305.587 376,303.5C 375.5,274.502 375.333,245.502 375.5,216.5C 368.825,216.666 362.158,216.5 355.5,216C 347.175,208.793 347.508,202.127 356.5,196C 366.167,195.833 375.833,195.667 385.5,195.5C 396.235,195.368 406.902,195.868 417.5,197C 423.715,202.708 424.048,208.708 418.5,215C 417.255,215.791 415.922,216.291 414.5,216.5 Z"/></g>
<g><path style="opacity:1" fill="#ef8cb9" d="M 116.5,216.5 C 122.5,216.5 128.5,216.5 134.5,216.5C 134.5,244.833 134.5,273.167 134.5,301.5C 133.502,273.672 133.169,245.672 133.5,217.5C 127.642,217.822 121.975,217.489 116.5,216.5 Z"/></g>
<g><path style="opacity:1" fill="#fe1367" d="M 295.5,216.5 C 301.509,216.334 307.509,216.501 313.5,217C 327.763,223.899 329.096,232.566 317.5,243C 310.239,244.348 302.906,244.848 295.5,244.5C 295.5,235.167 295.5,225.833 295.5,216.5 Z"/></g>
<g><path style="opacity:1" fill="#fc478b" d="M 414.5,216.5 C 409.025,217.489 403.358,217.822 397.5,217.5C 397.831,245.672 397.498,273.672 396.5,301.5C 396.5,273.167 396.5,244.833 396.5,216.5C 402.5,216.5 408.5,216.5 414.5,216.5 Z"/></g>
<g><path style="opacity:1" fill="#fe1467" d="M 233.5,265.5 C 225.35,266.493 217.017,266.826 208.5,266.5C 212.365,255.407 216.532,244.407 221,233.5C 226.049,243.814 230.216,254.48 233.5,265.5 Z"/></g>
<g><path style="opacity:1" fill="#fe636e" d="M 471.5,246.5 C 472.325,250.647 472.825,254.981 473,259.5C 474.5,262.333 476.667,264.5 479.5,266C 486.59,266.962 491.257,264.129 493.5,257.5C 492.653,271.9 489.82,285.9 485,299.5C 466.054,343.441 432.887,368.941 385.5,376C 324.168,376.5 262.834,376.667 201.5,376.5C 194.27,374.042 191.77,369.042 194,361.5C 196.063,359.266 198.229,357.266 200.5,355.5C 201.167,355.5 201.833,355.5 202.5,355.5C 263.168,355.667 323.834,355.5 384.5,355C 392.684,353.763 400.684,351.763 408.5,349C 452.25,329.029 473.25,294.862 471.5,246.5 Z"/></g>
<g><path style="opacity:1" fill="#fbb2cb" d="M 233.5,265.5 C 234.043,265.56 234.376,265.893 234.5,266.5C 225.675,267.821 217.009,267.821 208.5,266.5C 217.017,266.826 225.35,266.493 233.5,265.5 Z"/></g>
<g><path style="opacity:0.997" fill="#fc3480" d="M 11.5,333.5 C 24.9152,343.536 39.9152,350.37 56.5,354C 104.476,355.455 152.476,355.955 200.5,355.5C 198.229,357.266 196.063,359.266 194,361.5C 191.77,369.042 194.27,374.042 201.5,376.5C 201.5,376.833 201.5,377.167 201.5,377.5C 156.499,377.667 111.499,377.5 66.5,377C 52.361,375.229 38.6943,371.729 25.5,366.5C 20.0064,355.847 15.3397,344.847 11.5,333.5 Z"/></g>
<g><path style="opacity:0.996" fill="#2abbc7" d="M 467.5,357.5 C 448.553,400.11 419.553,434.11 380.5,459.5C 373.435,443.938 361.769,433.438 345.5,428C 281.857,426.363 218.191,426.029 154.5,427C 133.984,431.352 120.65,443.519 114.5,463.5C 83.9467,444.948 58.9467,420.614 39.5,390.5C 48.0421,392.634 56.7088,394.134 65.5,395C 170.667,395.833 275.667,395.666 380.5,394.5C 413.945,392.269 442.945,379.935 467.5,357.5 Z"/></g>
<g><path style="opacity:0.997" fill="#df2680" d="M 25.5,366.5 C 38.6943,371.729 52.361,375.229 66.5,377C 111.499,377.5 156.499,377.667 201.5,377.5C 201.938,377.435 202.272,377.601 202.5,378C 197.235,383.407 197.235,388.74 202.5,394C 261.832,394.5 321.166,394.667 380.5,394.5C 275.667,395.666 170.667,395.833 65.5,395C 56.7088,394.134 48.0421,392.634 39.5,390.5C 34.3436,382.864 29.677,374.864 25.5,366.5 Z"/></g>
<g><path style="opacity:1" fill="#2dd0e1" d="M 380.5,459.5 C 329.554,493.196 273.554,506.363 212.5,499C 177.076,494.362 144.409,482.529 114.5,463.5C 120.65,443.519 133.984,431.352 154.5,427C 218.191,426.029 281.857,426.363 345.5,428C 361.769,433.438 373.435,443.938 380.5,459.5 Z"/></g>
</svg>
