<?xml version="1.0" encoding="UTF-8"?>
<!DOCTYPE svg PUBLIC "-//W3C//DTD SVG 1.1//EN" "http://www.w3.org/Graphics/SVG/1.1/DTD/svg11.dtd">
<svg xmlns="http://www.w3.org/2000/svg" version="1.1" width="512px" height="512px" style="shape-rendering:geometricPrecision; text-rendering:geometricPrecision; image-rendering:optimizeQuality; fill-rule:evenodd; clip-rule:evenodd" xmlns:xlink="http://www.w3.org/1999/xlink">
<g><path style="opacity:0.99" fill="#b2bed4" d="M 363.5,217.5 C 343.833,217.5 324.167,217.5 304.5,217.5C 315.056,198.059 325.889,178.726 337,159.5C 347.778,129.776 341.278,104.61 317.5,84C 293.081,67.729 268.414,67.3957 243.5,83C 239.367,86.1311 235.534,89.6311 232,93.5C 223.416,107 215.082,120.667 207,134.5C 197.261,143.329 186.428,144.829 174.5,139C 163.244,131.651 159.411,121.485 163,108.5C 171.661,91.8354 181.328,75.8354 192,60.5C 230.275,20.3754 275.441,10.2088 327.5,30C 365.083,48.6318 386.917,78.7985 393,120.5C 395.407,141.653 392.407,161.986 384,181.5C 377.408,193.69 370.574,205.69 363.5,217.5 Z"/></g>
<g><path style="opacity:0.999" fill="#5d4bdd" d="M 304.5,217.5 C 324.167,217.5 343.833,217.5 363.5,217.5C 377.504,217.333 391.504,217.5 405.5,218C 418.264,221.764 426.764,229.931 431,242.5C 432.651,315.131 432.984,387.797 432,460.5C 429.418,475.522 420.918,485.356 406.5,490C 305.833,490.667 205.167,490.667 104.5,490C 89.6077,485.728 81.1077,475.894 79,460.5C 78.3333,389.5 78.3333,318.5 79,247.5C 81.8369,232.327 90.6703,222.494 105.5,218C 171.832,217.5 238.166,217.333 304.5,217.5 Z"/></g>
<g><path style="opacity:1" fill="#ebedf2" d="M 247.5,299.5 C 271.009,297.391 284.343,307.891 287.5,331C 287.484,343.537 282.15,353.037 271.5,359.5C 270.947,373.222 270.114,386.889 269,400.5C 264.351,407.499 257.851,409.999 249.5,408C 246.333,406.167 243.833,403.667 242,400.5C 240.886,386.889 240.053,373.222 239.5,359.5C 225.498,350 220.664,337 225,320.5C 229.502,310.161 237.002,303.161 247.5,299.5 Z"/></g>
</svg>
